<?xml version="1.0" encoding="utf-8"?>
<!-- Generator: Adobe Illustrator 25.4.1, SVG Export Plug-In . SVG Version: 6.00 Build 0)  -->
<svg version="1.1" id="Layer_1" xmlns="http://www.w3.org/2000/svg" xmlns:xlink="http://www.w3.org/1999/xlink" x="0px" y="0px"
	 viewBox="0 0 32 32" style="enable-background:new 0 0 32 32;" xml:space="preserve">
<style type="text/css">
	.st0{fill:#E8374D;}
</style>
<g>
	<path class="st0" d="M16.5,4c-5,0-9.1,4.1-9.1,9.1s4.1,9.1,9.1,9.1s9.1-4.1,9.1-9.1S21.5,4,16.5,4z M16.5,21.2c-4.4,0-8-3.6-8-8
		s3.6-8,8-8s8,3.6,8,8S20.9,21.2,16.5,21.2z"/>
	<path class="st0" d="M25.6,4c-5-5-13.2-5-18.3,0c-2.4,2.4-3.8,5.7-3.8,9.1s1.3,6.7,3.8,9.1l9.1,9.1l9.1-9.1
		c2.4-2.4,3.8-5.7,3.8-9.1C29.4,9.7,28.1,6.4,25.6,4z M24.9,21.5l-8.4,8.4l-8.4-8.4c-2.2-2.2-3.5-5.2-3.5-8.4S5.9,7,8.1,4.7
		c2.3-2.3,5.3-3.5,8.4-3.5s6.1,1.2,8.4,3.5c2.2,2.2,3.5,5.2,3.5,8.4S27.1,19.3,24.9,21.5z"/>
	<path class="st0" d="M21.3,12.6h-2.8c-0.2-0.7-0.7-1.2-1.4-1.4V6.6C17,6.3,16.8,6,16.5,6S16,6.3,16,6.6v4.6c-0.9,0.2-1.5,1-1.5,1.9
		c0,1.1,0.9,2,2,2c0.9,0,1.7-0.6,2-1.5h2.8c0.3,0,0.5-0.2,0.5-0.5S21.6,12.6,21.3,12.6z M16.5,14.1c-0.5,0-1-0.4-1-1s0.4-1,1-1
		s1,0.4,1,1S17,14.1,16.5,14.1z"/>
</g>
</svg>
