<?xml version="1.0" encoding="utf-8"?>
<!-- Generator: Adobe Illustrator 25.4.1, SVG Export Plug-In . SVG Version: 6.00 Build 0)  -->
<svg version="1.1" id="Layer_1" xmlns="http://www.w3.org/2000/svg" xmlns:xlink="http://www.w3.org/1999/xlink" x="0px" y="0px"
	 viewBox="0 0 32 32" style="enable-background:new 0 0 32 32;" xml:space="preserve">
<style type="text/css">
	.st0{fill:#E8374D;}
</style>
<path class="st0" d="M27.3,27.3C30.2,24.4,32,20.4,32,16c0-8.8-7.2-16-16-16C11.6,0,7.6,1.8,4.7,4.7c0,0,0,0,0,0s0,0,0,0
	C1.8,7.6,0,11.6,0,16c0,8.8,7.2,16,16,16C20.4,32,24.4,30.2,27.3,27.3C27.3,27.3,27.3,27.3,27.3,27.3C27.3,27.3,27.3,27.3,27.3,27.3
	z M31,16c0,4-1.5,7.5-4.1,10.2L5.8,5.1C8.4,2.5,12,1,16,1C24.3,1,31,7.7,31,16z M1,16c0-4,1.5-7.6,4.1-10.2l21.2,21.2
	C23.5,29.5,20,31,16,31C7.7,31,1,24.3,1,16z"/>
</svg>
