<?xml version="1.0" encoding="utf-8"?>
<!-- Generator: Adobe Illustrator 25.4.1, SVG Export Plug-In . SVG Version: 6.00 Build 0)  -->
<svg version="1.1" id="Layer_1" xmlns="http://www.w3.org/2000/svg" xmlns:xlink="http://www.w3.org/1999/xlink" x="0px" y="0px"
	 viewBox="0 0 32 32" style="enable-background:new 0 0 32 32;" xml:space="preserve">
<style type="text/css">
	.st0{fill:#E8384E;}
</style>
<g>
	<path class="st0" d="M26,32c-0.3,0-0.6-0.1-0.9-0.3L16,25l-9.1,6.7c-0.5,0.3-1.1,0.4-1.6,0.1c-0.5-0.3-0.8-0.8-0.8-1.3V11
		c0-0.3,0.2-0.5,0.5-0.5s0.5,0.2,0.5,0.5v19.5c0,0.2,0.1,0.4,0.3,0.4c0.2,0.1,0.4,0.1,0.5,0l9.4-6.9c0.2-0.1,0.4-0.1,0.6,0l9.4,6.9
		c0.2,0.1,0.4,0.1,0.5,0c0.2-0.1,0.3-0.3,0.3-0.4V11c0-0.3,0.2-0.5,0.5-0.5s0.5,0.2,0.5,0.5v19.5c0,0.6-0.3,1.1-0.8,1.3
		C26.5,31.9,26.2,32,26,32z"/>
	<path class="st0" d="M26,9H6C5.2,9,4.5,8.3,4.5,7.5v-6C4.5,0.7,5.2,0,6,0h20c0.8,0,1.5,0.7,1.5,1.5v6C27.5,8.3,26.8,9,26,9z M6,1
		C5.7,1,5.5,1.2,5.5,1.5v6C5.5,7.8,5.7,8,6,8h20c0.3,0,0.5-0.2,0.5-0.5v-6C26.5,1.2,26.3,1,26,1H6z"/>
</g>
</svg>
