<?xml version="1.0" encoding="utf-8"?>
<!-- Generator: Adobe Illustrator 25.4.1, SVG Export Plug-In . SVG Version: 6.00 Build 0)  -->
<svg version="1.1" id="Layer_1" xmlns="http://www.w3.org/2000/svg" xmlns:xlink="http://www.w3.org/1999/xlink" x="0px" y="0px"
	 viewBox="0 0 34 32" style="enable-background:new 0 0 34 32;" xml:space="preserve">
<style type="text/css">
	.st0{fill:#E8374D;}
</style>
<g>
	<path class="st0" d="M10.5,6c0,3.3,2.7,6,6,6s6-2.7,6-6s-2.7-6-6-6S10.5,2.7,10.5,6z M21.5,6c0,2.8-2.2,5-5,5s-5-2.2-5-5s2.2-5,5-5
		S21.5,3.2,21.5,6z"/>
	<path class="st0" d="M4.5,32C7,32,9,30,9,27.5S7,23,4.5,23S0,25,0,27.5S2,32,4.5,32z M4.5,24C6.4,24,8,25.6,8,27.5S6.4,31,4.5,31
		S1,29.4,1,27.5S2.6,24,4.5,24z"/>
	<path class="st0" d="M17,32c2.5,0,4.5-2,4.5-4.5S19.5,23,17,23s-4.5,2-4.5,4.5S14.5,32,17,32z M17,24c1.9,0,3.5,1.6,3.5,3.5
		S18.9,31,17,31s-3.5-1.6-3.5-3.5S15.1,24,17,24z"/>
	<path class="st0" d="M29.5,32c2.5,0,4.5-2,4.5-4.5S32,23,29.5,23S25,25,25,27.5S27,32,29.5,32z M29.5,24c1.9,0,3.5,1.6,3.5,3.5
		S31.4,31,29.5,31S26,29.4,26,27.5S27.6,24,29.5,24z"/>
	<path class="st0" d="M29,20c0,0.3,0.2,0.5,0.5,0.5S30,20.3,30,20v-2.5c0-0.3-0.2-0.5-0.5-0.5H17v-3c0-0.3-0.2-0.5-0.5-0.5
		S16,13.7,16,14v3H4.5C4.2,17,4,17.2,4,17.5V20c0,0.3,0.2,0.5,0.5,0.5S5,20.3,5,20v-2h11v2c0,0.3,0.2,0.5,0.5,0.5S17,20.3,17,20v-2
		h12V20z"/>
</g>
</svg>
