<?xml version="1.0" encoding="utf-8"?>
<!-- Generator: Adobe Illustrator 25.4.1, SVG Export Plug-In . SVG Version: 6.00 Build 0)  -->
<svg version="1.1" id="Layer_1" xmlns="http://www.w3.org/2000/svg" xmlns:xlink="http://www.w3.org/1999/xlink" x="0px" y="0px"
	 viewBox="0 0 47 32" style="enable-background:new 0 0 47 32;" xml:space="preserve">
<style type="text/css">
	.st0{fill:#E8374D;}
</style>
<g>
	<path class="st0" d="M35.5,8.5c-0.1,0-0.3,0-0.4,0c-0.1,0-0.2,0-0.3,0C33.4,3.5,28.7,0,23.5,0c-6.5,0-12,5.3-12,11.9V12
		c0-0.1-1.2-0.2-1.8-0.2C4.4,11.8,0,16.4,0,21.9S4.4,32,9.7,32h9.8c0.3,0,0.5-0.2,0.5-0.5S19.8,31,19.5,31H9.7
		c-4.8,0-8.8-4.2-8.8-9.1s4-9.1,8.8-9.1c0.8,0,1.6,0.1,2.3,0.3l0,0c1.5,0.4,2.8,1.2,3.9,2.3c0.1,0.1,0.2,0.1,0.4,0.1s0.3,0,0.4-0.1
		c0.2-0.2,0.2-0.5,0-0.7c-1.1-1.1-2.5-1.9-4-2.4c0-0.1,0-0.3,0-0.4c0-6,4.9-10.9,10.9-10.9c4.7,0,8.9,3.1,10.3,7.6
		c-5.2,0.7-10.4,4.8-10.4,12.7v7.8L21,26.7c-0.2-0.2-0.5-0.2-0.7,0s-0.2,0.5,0,0.7l3.3,3.3c0.1,0.1,0.2,0.3,0.3,0.3l0,0
		c0.1,0,0.3-0.2,0.4-0.3l3-3.3c0.2-0.2,0.2-0.5,0-0.7s-0.5-0.2-0.7,0L24.5,29v-7.7c0-7.7,5.4-11.5,10.4-11.8c0.1,0,0.1,0,0.2,0
		c0.1,0,0.3,0,0.4,0c5.8,0,10.5,4.8,10.5,10.7C46.1,26,41.3,31,35.6,31h-7.1c-0.3,0-0.5,0.2-0.5,0.5s0.2,0.5,0.5,0.5h7.1
		c6.3,0,11.5-5.4,11.5-11.8C47.1,13.7,41.9,8.5,35.5,8.5z"/>
</g>
</svg>
