<svg xmlns="http://www.w3.org/2000/svg" xmlns:xlink="http://www.w3.org/1999/xlink" id="Layer_1" x="0px" y="0px" width="175px" height="65px" viewBox="0 0 175 65" style="enable-background:new 0 0 175 65;" xml:space="preserve"><style type="text/css">	.st0{fill:#1F2944;}	.st1{fill:#FFC05D;}	.st2{fill:#141F4C;}</style><path class="st0" d="M63.1,18.1c-0.2-0.9-1.2-1.3-2-0.9c-1.1,0.5-2.3,0.9-3.5,1c-6.5,0.6-12-4.6-12-11c0-1.4,0.3-2.7,0.7-3.9 c0.3-0.8-0.2-1.7-1-1.9C31.9-1.6,13.7,0.4,7,7c-9.3,9.3-9.5,41.1,0,50.6s40.9,9.7,50.6,0C64.8,50.4,66.5,31.4,63.1,18.1z M37.2,22.8 H16.6c0-4.6,3.7-8.2,8.2-8.2h12.4c6.2,0,11.3,5.2,11,11.6c-0.3,5.9-5.4,10.4-11.3,10.4H20.7c-2.3,0-4.1-1.8-4.1-4.1 c0-2.3,1.8-4.1,4.1-4.1h16.4c1.4,0,2.7-1,2.9-2.5C40.1,24.1,38.8,22.8,37.2,22.8z M48.2,46.1c0,2.3-1.9,4.1-4.3,4.1h-19 c-4.6,0-8.2-3.7-8.2-8.2v0h27.3C46.3,42,48.2,43.8,48.2,46.1L48.2,46.1z"></path><path class="st1" d="M57.3,13.6c3.4-0.3,6-3.4,6-6.9v0c0-3.4-2.8-6.2-6.2-6.2h-0.3v0c0,0,0,0,0,0c-3.6,0-6.5,2.9-6.5,6.5 C50.1,10.9,53.4,14,57.3,13.6z"></path><g>	<path class="st2" d="M76,30.2v-12c0.1-6.5,4.3-11,10.9-11c6.4-0.1,10.9,4.5,10.9,10.8c0,6-4.4,10.3-10.9,10.3h-5.1v2.2  c0,3.1,1.8,5.3,5,5.3c2.8,0,4.6-2,4.8-5.1c0.1-0.6,0.4-0.9,1-0.9h4c0.5,0,0.9,0.3,0.9,0.9c-0.3,6.4-4.6,10.6-10.8,10.6  C80.4,41.3,76,36.9,76,30.2z M86.9,22.9c3.1,0,5-2,5-4.9c0-3.3-1.9-5.4-5.1-5.4c-3.2,0-5,2.1-5,5.4v4.9H86.9z"></path>	<path class="st2" d="M102.2,30.3c0-5.7,4.4-10,10.8-10h5.1v-2.3c0-3.1-1.8-5.2-4.9-5.2c-2.9,0-4.4,1.9-4.6,4.7  c-0.1,0.6-0.3,0.8-1,0.8h-4c-0.5,0-0.9-0.4-0.9-1c0.4-5.9,4.4-10.2,10.5-10.2c6.5,0,10.7,4.6,10.7,11.1v12.3  c0,6.3-4.1,10.8-10.7,10.8C106.6,41.3,102.2,36.7,102.2,30.3z M118.1,30.5v-5h-4.9c-3.2,0-5.1,2.1-5.1,4.8c0,3.3,1.9,5.4,5.1,5.4  C116.3,35.7,118.1,33.7,118.1,30.5z"></path>	<path class="st2" d="M147.3,35.8c0.6,0,1,0.3,1,1v3.6c0,0.6-0.3,1-1,1h-16.7c-1.4,0-2.3-0.9-2.3-2.4v-1.3c0-1,0.1-1.8,0.7-2.8  l12.8-22.1h-11.9c-0.5,0-1-0.3-1-1V8c0-0.5,0.4-0.9,1-0.9H146c1.4,0,2.3,0.8,2.3,2.3v1.7c0,0.9-0.1,1.8-0.7,2.8L135,35.8H147.3z"></path>	<path class="st2" d="M175,8v38.8c0,6.8-4.2,11.1-10.8,11.1c-6.2,0-10.4-4.3-10.7-11c-0.1-0.6,0.3-1,0.9-1h4c0.5,0,0.8,0.3,0.9,1  c0.2,3.4,2,5.4,4.9,5.4c3.1,0,4.9-2,4.9-5.3v-9.2c-1.3,1.5-3.2,2.5-5.4,2.5c-6,0-10.3-4.6-10.3-11.1V8c0-0.5,0.3-0.9,1-0.9h4  c0.6,0,1,0.3,1,0.9v21.4c0,3.1,1.8,5.3,4.9,5.3c3.1,0,4.9-2.2,4.9-5.3V8c0-0.5,0.3-0.9,1-0.9h4C174.6,7.1,175,7.5,175,8z"></path></g><g>	<path class="st2" d="M76,57.8v-8.3c0-1.9,1.1-3.1,2.9-3.1c1.8,0,3,1.3,3,3.1v1.6c0,1.8-1.2,3-2.9,3h-0.9v3.7c0,0.2-0.1,0.3-0.3,0.3  h-1.5C76.1,58.1,76,58,76,57.8z M78.8,52.2c0.7,0,1-0.4,1-1.1v-1.8c0-0.6-0.3-1-0.9-1c-0.5,0-0.9,0.4-0.9,1v2.9H78.8z"></path>	<path class="st2" d="M92.4,56.2c0.2,0,0.3,0.1,0.3,0.3v1.3c0,0.2-0.1,0.3-0.3,0.3h-1.9c-1.8,0-2.8-1.3-2.8-3v-8.3  c0-0.2,0.1-0.3,0.3-0.3h1.5c0.2,0,0.3,0.1,0.3,0.3v8.2c0,0.8,0.4,1.2,0.9,1.2H92.4z"></path>	<path class="st2" d="M99.7,46.6c0.2,0,0.3,0.1,0.3,0.3v8.4c0,0.6,0.3,1.1,0.9,1.1c0.6,0,0.9-0.4,0.9-1.1v-8.4  c0-0.2,0.1-0.3,0.3-0.3h1.5c0.2,0,0.3,0.1,0.3,0.3v8.3c0,1.9-1.2,3.1-3,3.1c-1.8,0-2.9-1.3-2.9-3.1v-8.3c0-0.2,0.1-0.3,0.3-0.3  H99.7z"></path>	<path class="st2" d="M110.1,55.2v-5.7c0-1.8,1.2-3.1,2.9-3.1c1.7,0,2.9,1.2,2.9,3.2c0,0.2-0.1,0.3-0.3,0.3h-1.5  c-0.2,0-0.3-0.1-0.3-0.3c0-0.9-0.4-1.3-0.9-1.3c-0.5,0-0.9,0.4-0.9,1v6c0,0.6,0.4,1,1,1c0.6,0,0.9-0.4,0.9-1v-1.9h-0.7  c-0.2,0-0.3-0.1-0.3-0.3V52c0-0.2,0.1-0.3,0.3-0.3h1.8c0.6,0,0.9,0.3,0.9,0.9v2.6c0,1.8-1.2,3.1-3,3.1  C111.3,58.3,110.1,57,110.1,55.2z"></path>	<path class="st2" d="M122.4,46.6h1.5c0.2,0,0.3,0.1,0.3,0.3v10.9c0,0.2-0.1,0.3-0.3,0.3h-1.5c-0.2,0-0.3-0.1-0.3-0.3V46.9  C122.1,46.7,122.2,46.6,122.4,46.6z"></path>	<path class="st2" d="M130.6,57.8v-8.3c0-1.8,1.2-3.1,2.9-3.1c1.8,0,3,1.3,3,3.1v8.3c0,0.2-0.1,0.3-0.3,0.3h-1.5  c-0.2,0-0.3-0.1-0.3-0.3v-8.4c0-0.6-0.3-1-0.9-1s-0.9,0.4-0.9,1v8.4c0,0.2-0.1,0.3-0.3,0.3h-1.5C130.7,58.1,130.6,58,130.6,57.8z"></path>	<path class="st2" d="M142.3,54.8c0-0.2,0.1-0.3,0.3-0.3h1.5c0.2,0,0.3,0.1,0.3,0.3c0,1,0.4,1.5,1,1.5c0.6,0,0.9-0.4,0.9-1  c0-2.3-3.8-3.2-3.8-6.3c0-1.7,1.1-2.7,2.8-2.7c1.7,0,2.8,1.2,2.9,3.3c0,0.2-0.1,0.3-0.3,0.3h-1.5c-0.2,0-0.3-0.1-0.3-0.3  c0-0.9-0.3-1.4-0.8-1.4c-0.5,0-0.8,0.3-0.8,0.8c0,2,3.8,3,3.8,6.3c0,1.8-1.2,2.9-3,2.9C143.4,58.3,142.3,57,142.3,54.8z"></path></g></svg>