<svg xmlns="http://www.w3.org/2000/svg" width="485" height="65" viewBox="0 0 485 65" fill="none"><g clip-path="url(#clip0_884_270)"><path d="M30.11 41.67L17.37 34.05C15.2 32.75 14.31 30.06 15.27 27.72L25.54 2.76005C26.12 1.35005 24.58 0.0100453 23.27 0.770045L4.2 11.78C1.6 13.28 0 16.05 0 19.05V44.31C0 47.31 1.6 50.08 4.2 51.58L27.12 64.67C28.67 65.56 30.63 64.56 30.82 62.78L32.57 46.6C32.78 44.62 31.83 42.69 30.11 41.67Z" fill="#E8374D"></path><path d="M32.63 2.28002L30.98 22C30.81 24.05 31.88 26 33.71 26.96L43.55 32.09C45.8 33.26 46.85 35.91 46.01 38.3L37.6 62.39C37.11 63.79 38.62 65.04 39.91 64.3L59.17 53.18C61.77 51.68 63.37 48.91 63.37 45.91V20.64C63.37 17.64 61.77 14.87 59.17 13.37L36.33 0.330024C34.75 -0.569976 32.78 0.470024 32.63 2.28002V2.28002Z" fill="#E8374D"></path><g style="mix-blend-mode:multiply" opacity="0.3"><path d="M15.27 27.72L25.54 2.76005C26.12 1.35005 24.58 0.0100453 23.27 0.770045L4.2 11.78C1.6 13.28 0 16.05 0 19.05C0 21.54 1.28 23.86 3.39 25.19L16.71 33.57C15.03 32.16 14.42 29.8 15.27 27.72V27.72Z" fill="url(#paint0_linear_884_270)"></path></g><path style="mix-blend-mode:multiply" opacity="0.4" d="M46.01 38.29L37.6 62.38C37.11 63.78 38.62 65.03 39.91 64.29L59.17 53.17C61.77 51.67 63.37 48.9 63.37 45.9C63.37 43.41 61.97 41.14 59.74 40.02L43.56 32.08C45.81 33.25 46.86 35.9 46.02 38.29H46.01Z" fill="url(#paint1_linear_884_270)"></path><path d="M337.66 29.04L330.71 43.09C330.46 43.61 330.06 44.04 329.57 44.35C329.08 44.65 328.52 44.81 327.94 44.81C327.37 44.81 326.8 44.65 326.31 44.34C325.82 44.04 325.43 43.6 325.17 43.09L318.25 29.04V47.2H311.86V18.33H317.1C318.13 18.33 319.15 18.63 320.02 19.18C320.89 19.73 321.59 20.52 322.03 21.46L327.99 34.19L334 21.45C334.44 20.52 335.14 19.73 336.01 19.18C336.88 18.63 337.89 18.34 338.92 18.33H344.14V47.2H337.71L337.65 29.04H337.66Z" fill="#1E1E3C"></path><path d="M368.23 47.2H365.1C364.39 47.2 363.71 46.92 363.2 46.41C362.7 45.91 362.42 45.22 362.42 44.51C361.74 45.45 360.85 46.21 359.82 46.73C358.79 47.25 357.65 47.53 356.49 47.53C354.33 47.6 352.22 46.87 350.57 45.49C349.78 44.82 349.16 43.99 348.74 43.04C348.32 42.1 348.12 41.07 348.16 40.04C348.1 39.05 348.29 38.06 348.72 37.17C349.15 36.28 349.81 35.51 350.62 34.94C352.66 33.71 355.01 33.12 357.39 33.24H362.02V33.12C362.02 30.71 360.77 29.53 358.26 29.57C357.1 29.58 355.94 29.8 354.85 30.21C353.91 30.55 352.89 30.56 351.93 30.25C350.98 29.94 350.16 29.33 349.59 28.51L349.09 27.78C351.99 25.67 355.5 24.55 359.08 24.6C361.45 24.5 363.78 25.21 365.68 26.62C367.37 27.97 368.22 30.1 368.23 33.02L368.21 47.19L368.23 47.2ZM362 38.78V37.7H358.13C355.65 37.7 354.41 38.47 354.41 40.01C354.39 40.37 354.46 40.72 354.62 41.05C354.78 41.37 355.01 41.65 355.3 41.85C356.06 42.33 356.95 42.55 357.84 42.49C358.9 42.5 359.93 42.15 360.75 41.48C361.16 41.16 361.49 40.74 361.7 40.27C361.92 39.8 362.02 39.28 362 38.75V38.79V38.78Z" fill="#1E1E3C"></path><path d="M378.88 34.8199V47.1999H372.7V31.1899C372.7 30.3799 372.86 29.5699 373.17 28.8199C373.48 28.0699 373.93 27.3899 374.51 26.8099C375.09 26.2299 375.77 25.7799 376.52 25.4699C377.27 25.1599 378.08 24.9999 378.89 24.9999V27.5299C379.69 26.6499 380.66 25.9399 381.75 25.4499C382.84 24.9599 384.01 24.6999 385.2 24.6799C386.3 24.6499 387.39 24.8599 388.41 25.2899C389.42 25.7199 390.34 26.3499 391.08 27.1599C391.9 28.0499 392.53 29.0899 392.94 30.2199C393.35 31.3499 393.54 32.5599 393.48 33.7599V47.2499H387.29V34.6599C387.29 31.2399 386.04 29.5399 383.54 29.5399C382.94 29.5399 382.34 29.6499 381.78 29.8799C381.22 30.1099 380.72 30.4499 380.29 30.8799C379.8 31.4099 379.42 32.0299 379.18 32.7099C378.94 33.3899 378.84 34.1099 378.89 34.8299L378.88 34.8199Z" fill="#1E1E3C"></path><path d="M416.73 47.2H413.59C412.88 47.2 412.2 46.92 411.69 46.41C411.19 45.91 410.9 45.22 410.9 44.51C410.22 45.45 409.33 46.21 408.3 46.73C407.27 47.25 406.13 47.53 404.97 47.53C402.81 47.59 400.71 46.87 399.05 45.49C398.26 44.82 397.64 43.99 397.22 43.04C396.8 42.1 396.61 41.07 396.65 40.04C396.59 39.05 396.79 38.06 397.22 37.17C397.65 36.28 398.31 35.51 399.13 34.95C401.17 33.72 403.52 33.13 405.9 33.25H410.49V33.13C410.49 30.72 409.24 29.54 406.74 29.58C405.58 29.59 404.42 29.81 403.34 30.22C402.4 30.56 401.38 30.57 400.42 30.26C399.46 29.95 398.65 29.34 398.08 28.52L397.56 27.79C400.46 25.68 403.97 24.57 407.55 24.61C409.92 24.51 412.25 25.22 414.15 26.63C415.86 27.98 416.71 30.11 416.71 33.03V47.2H416.73ZM410.5 38.78V37.7H406.62C404.14 37.7 402.9 38.47 402.9 40.01C402.88 40.37 402.95 40.72 403.11 41.04C403.27 41.36 403.5 41.64 403.79 41.85C404.55 42.33 405.44 42.55 406.33 42.49C407.39 42.5 408.42 42.15 409.24 41.48C409.65 41.16 409.98 40.74 410.2 40.27C410.42 39.79 410.52 39.27 410.5 38.75V38.79V38.78Z" fill="#1E1E3C"></path><path d="M437.61 43.45C436.71 44.49 435.59 45.33 434.33 45.89C433.07 46.45 431.7 46.73 430.32 46.71C428.96 46.74 427.61 46.49 426.34 45.98C425.08 45.47 423.93 44.71 422.97 43.75C421.95 42.71 421.16 41.48 420.65 40.12C420.13 38.76 419.9 37.32 419.97 35.87C419.92 34.38 420.16 32.9 420.69 31.51C421.22 30.12 422.02 28.85 423.05 27.77C423.94 26.79 425.03 26 426.24 25.46C427.45 24.92 428.76 24.63 430.09 24.62C431.37 24.6 432.62 24.89 433.77 25.46C434.91 26.03 435.9 26.86 436.66 27.88C436.66 27.49 436.74 27.11 436.88 26.76C437.02 26.41 437.25 26.08 437.52 25.81C437.79 25.54 438.11 25.32 438.47 25.17C438.83 25.02 439.21 24.95 439.6 24.95H442.86V44.36C442.89 46.17 442.54 47.97 441.83 49.64C441.23 51.06 440.27 52.3 439.06 53.25C436.76 55.07 433.9 56.04 430.97 55.98C429.26 55.97 427.55 55.69 425.92 55.17C424.29 54.68 422.76 53.9 421.4 52.87C421.94 51.78 422.84 50.91 423.95 50.41C425.06 49.91 426.31 49.8 427.48 50.12C428.38 50.39 429.31 50.53 430.25 50.53C432.19 50.64 434.11 50.04 435.64 48.83C436.35 48.14 436.9 47.29 437.24 46.36C437.58 45.43 437.71 44.43 437.63 43.44L437.61 43.45ZM436.74 35.62C436.78 34.86 436.67 34.1 436.42 33.38C436.16 32.66 435.77 32 435.25 31.44C434.78 30.95 434.21 30.55 433.57 30.29C432.94 30.03 432.26 29.9 431.58 29.91C430.88 29.91 430.19 30.03 429.54 30.29C428.89 30.55 428.3 30.94 427.81 31.43C427.27 31.98 426.85 32.63 426.58 33.35C426.31 34.07 426.19 34.84 426.23 35.6C426.17 37.17 426.72 38.7 427.77 39.87C428.25 40.39 428.83 40.81 429.48 41.09C430.13 41.37 430.83 41.51 431.54 41.5C432.24 41.52 432.93 41.39 433.58 41.11C434.22 40.83 434.79 40.42 435.26 39.9C436.3 38.72 436.83 37.19 436.75 35.62H436.74Z" fill="#1E1E3C"></path><path d="M463.27 40.2199C463.76 40.7399 464.1 41.3799 464.27 42.0699C464.44 42.7599 464.43 43.4899 464.24 44.1799C464.05 44.8699 463.69 45.4899 463.18 45.9999C462.68 46.5099 462.05 46.8799 461.37 47.0699C460.25 47.3799 459.09 47.5299 457.93 47.5299C454.84 47.6399 451.83 46.5099 449.57 44.4C448.46 43.3199 447.58 42.0199 447.01 40.5799C446.44 39.1399 446.19 37.5899 446.26 36.0399C446.15 34.0899 446.59 32.1399 447.52 30.4199C448.45 28.6999 449.84 27.2699 451.53 26.2899C453.45 25.1399 455.67 24.5599 457.9 24.6199C460.63 24.6199 463.27 25.5999 465.33 27.3899C466.4 28.3299 467.24 29.5099 467.79 30.8199C468.34 32.1299 468.6 33.5499 468.53 34.9799V38.3499H452.35C452.45 38.9499 452.67 39.5199 452.99 40.0299C453.32 40.5399 453.74 40.9799 454.25 41.3199C455.29 42.0999 456.56 42.5199 457.86 42.5199C458.86 42.5499 459.85 42.36 460.77 41.99C461.69 41.61 462.53 41.0499 463.22 40.3299L463.24 40.2199H463.27ZM460.79 30.8099C459.92 30.0799 458.81 29.6999 457.67 29.7299C456.46 29.7299 455.28 30.1199 454.3 30.8499C453.81 31.1999 453.4 31.6499 453.09 32.1699C452.78 32.6899 452.59 33.2699 452.53 33.8699H462.27C462.24 33.2899 462.09 32.7199 461.83 32.1899C461.57 31.6699 461.22 31.1999 460.78 30.8099H460.79Z" fill="#1E1E3C"></path><path d="M483.49 30.44C482.69 30.39 481.89 30.54 481.17 30.88C480.45 31.22 479.83 31.75 479.36 32.4C478.38 33.94 477.91 35.75 478 37.57V47.19H471.83V31.19C471.83 30.38 471.99 29.57 472.3 28.82C472.61 28.07 473.07 27.38 473.64 26.81C474.21 26.23 474.9 25.78 475.65 25.47C476.4 25.16 477.21 25 478.02 25V27.92C478.87 26.98 479.88 26.2 481 25.61C481.39 25.43 481.81 25.35 482.23 25.37C482.65 25.4 483.07 25.53 483.43 25.75C483.79 25.98 484.09 26.29 484.29 26.66C484.5 27.03 484.61 27.45 484.61 27.88V30.45H483.48L483.49 30.44Z" fill="#1E1E3C"></path><path d="M101.88 34.13H90.32V41.59H97.4C98.95 41.59 100.43 42.21 101.53 43.31C102.62 44.41 103.24 45.89 103.24 47.44H83.23V15.98H96.8C98.35 15.98 99.83 16.59 100.93 17.69C102.02 18.78 102.64 20.27 102.64 21.81H90.34V28.34H96.13C96.89 28.34 97.64 28.49 98.34 28.78C99.04 29.07 99.68 29.5 100.21 30.03C100.75 30.57 101.17 31.21 101.46 31.91C101.75 32.61 101.9 33.36 101.9 34.12L101.88 34.13Z" fill="#1E1E3C"></path><path d="M121.97 47.43C121.31 47.43 120.68 47.2 120.18 46.78C119.68 46.36 119.34 45.78 119.22 45.13H119.09C118.28 46.06 117.27 46.79 116.14 47.28C115.01 47.76 113.78 47.99 112.56 47.94C111.61 47.99 110.66 47.85 109.76 47.52C108.87 47.19 108.05 46.68 107.36 46.03C106.67 45.37 106.12 44.58 105.75 43.71C105.38 42.83 105.18 41.89 105.19 40.94C105.19 35.02 110.49 32.17 118.58 32.22V31.9C118.58 30.7 117.92 28.97 114.42 28.97C113.61 28.97 112.81 29.05 112.01 29.21C110.92 29.42 109.78 29.23 108.82 28.66C107.86 28.09 107.15 27.19 106.81 26.13C109.56 24.74 112.61 24.05 115.69 24.12C123.29 24.12 125.71 28.59 125.71 33.97V47.45H121.98L121.97 47.43ZM118.79 36.59C115.06 36.59 112.17 37.43 112.17 40.2C112.15 40.57 112.2 40.94 112.33 41.28C112.46 41.62 112.67 41.94 112.94 42.19C113.21 42.45 113.52 42.64 113.87 42.76C114.22 42.88 114.59 42.92 114.96 42.89C115.77 42.89 116.57 42.65 117.23 42.18C117.89 41.71 118.39 41.05 118.65 40.28C118.74 39.88 118.78 39.48 118.78 39.08V36.59H118.79Z" fill="#1E1E3C"></path><path d="M128.29 43.37L135.51 34.37C136.81 32.83 137.83 31.7 139.12 30.3V30.2H129.09C129.09 28.72 129.69 27.29 130.74 26.24C131.79 25.19 133.21 24.6 134.7 24.6H147.75V28.85L140.89 37.47C139.72 38.94 138.48 40.34 137.16 41.67V41.74H148.18C148.18 42.48 148.03 43.21 147.75 43.9C147.47 44.58 147.05 45.21 146.53 45.73C146.01 46.25 145.38 46.67 144.7 46.95C144.02 47.23 143.28 47.38 142.54 47.38H128.35L128.3 43.35L128.29 43.37Z" fill="#1E1E3C"></path><path d="M156.6 24.6199L160 35.8199C160.37 37.1699 160.84 38.8499 161.12 40.0699H161.26C161.58 38.8699 161.96 37.1199 162.28 35.8199L163.23 32.0099C163.76 29.8999 164.97 28.0299 166.69 26.6899C168.4 25.3499 170.51 24.6199 172.69 24.6299L167.37 39.6499C164.1 48.7099 161.91 52.3399 159.35 54.6199H159.28C158.6 55.1699 157.8 55.5399 156.94 55.6899C156.08 55.8399 155.2 55.7799 154.38 55.4999C153.56 55.2199 152.82 54.7399 152.23 54.0899C151.64 53.4499 151.23 52.6599 151.03 51.8199V51.6799C152.12 51.4799 153.17 51.0699 154.11 50.4799C155.32 49.7999 156.33 48.8199 157.06 47.6399C157.28 47.3399 157.41 46.9799 157.43 46.6099C157.43 46.1899 157.31 45.7699 157.09 45.4099L151.68 31.8699C151.36 31.0599 151.23 30.1799 151.33 29.3199C151.42 28.4499 151.73 27.6199 152.22 26.8999C152.71 26.1799 153.37 25.5899 154.14 25.1799C154.91 24.7699 155.77 24.5599 156.64 24.5599L156.6 24.6399V24.6199Z" fill="#1E1E3C"></path><path d="M202.34 20.93C204.36 22.65 205.37 25.3 205.37 28.86C205.37 32.42 204.33 35.03 202.25 36.68C200.17 38.33 197.01 39.16 192.74 39.16H188.9V47.21H182.47V18.33H192.63C197.08 18.33 200.32 19.2 202.34 20.93ZM197.61 32.28C198.47 31.2 198.89 29.85 198.81 28.48C198.88 27.81 198.77 27.13 198.51 26.51C198.25 25.89 197.83 25.35 197.31 24.93C195.89 24.12 194.25 23.75 192.62 23.87H188.9V33.58H193.23C195.38 33.58 196.84 33.15 197.61 32.28Z" fill="#1E1E3C"></path><path d="M214.77 47.2H208.58V22.77C208.58 21.13 209.23 19.55 210.39 18.39C211.55 17.23 213.13 16.58 214.77 16.58V47.2Z" fill="#1E1E3C"></path><path d="M233.75 36.96V31.22C233.75 30.4 233.91 29.59 234.23 28.83C234.54 28.07 235 27.39 235.58 26.81C236.16 26.23 236.85 25.77 237.61 25.46C238.37 25.15 239.18 24.99 240 24.99V47.19H233.76V44.27C233.12 45.28 232.23 46.11 231.18 46.68C230.13 47.25 228.95 47.54 227.75 47.53C225.49 47.59 223.29 46.77 221.63 45.23C220.76 44.34 220.09 43.27 219.66 42.1C219.23 40.93 219.06 39.68 219.15 38.44V31.22C219.15 29.57 219.81 27.98 220.97 26.81C222.14 25.64 223.72 24.99 225.38 24.99V37.08C225.38 40.48 226.63 42.18 229.13 42.19C229.73 42.19 230.33 42.08 230.88 41.85C231.43 41.62 231.94 41.28 232.35 40.84C232.84 40.32 233.22 39.71 233.46 39.04C233.7 38.37 233.8 37.66 233.76 36.95L233.75 36.96Z" fill="#1E1E3C"></path><path d="M261.08 43.47C260.18 44.51 259.06 45.35 257.8 45.91C256.54 46.47 255.17 46.75 253.79 46.73C252.43 46.76 251.08 46.51 249.81 46.01C248.55 45.5 247.4 44.75 246.44 43.79C245.43 42.75 244.64 41.51 244.12 40.16C243.6 38.8 243.37 37.35 243.44 35.9C243.39 34.42 243.63 32.94 244.16 31.55C244.69 30.16 245.49 28.89 246.52 27.82C247.41 26.84 248.5 26.05 249.71 25.5C250.92 24.96 252.23 24.67 253.56 24.65C254.83 24.64 256.09 24.93 257.23 25.49C258.37 26.06 259.36 26.88 260.12 27.91C260.12 27.14 260.43 26.39 260.98 25.84C261.53 25.29 262.27 24.98 263.05 24.98H266.32V44.31C266.35 46.12 266 47.92 265.29 49.59C264.69 51.01 263.74 52.25 262.52 53.2C260.22 55.02 257.36 55.99 254.43 55.93C252.71 55.93 251.01 55.65 249.38 55.12C247.75 54.63 246.22 53.85 244.86 52.82C245.4 51.73 246.3 50.86 247.41 50.36C248.52 49.86 249.77 49.76 250.94 50.08C251.84 50.34 252.77 50.48 253.71 50.48C255.65 50.59 257.57 49.99 259.1 48.78C259.8 48.09 260.34 47.26 260.69 46.34C261.03 45.42 261.17 44.44 261.09 43.46L261.08 43.47ZM260.21 35.65C260.26 34.89 260.16 34.12 259.92 33.4C259.67 32.68 259.29 32.01 258.78 31.44C258.31 30.95 257.74 30.55 257.11 30.29C256.48 30.03 255.8 29.9 255.12 29.91C254.42 29.91 253.73 30.03 253.08 30.29C252.43 30.55 251.84 30.94 251.34 31.43C250.8 31.98 250.38 32.63 250.11 33.35C249.84 34.07 249.72 34.84 249.76 35.6C249.7 37.17 250.25 38.7 251.3 39.87C251.78 40.39 252.36 40.81 253.01 41.09C253.66 41.37 254.36 41.51 255.07 41.5C255.77 41.51 256.47 41.37 257.11 41.08C257.75 40.79 258.32 40.37 258.78 39.84C259.78 38.66 260.3 37.15 260.21 35.61V35.63V35.65Z" fill="#1E1E3C"></path><path d="M271.49 22.17C270.81 21.48 270.43 20.56 270.43 19.59C270.43 18.62 270.81 17.7 271.49 17.01C272 16.51 272.64 16.18 273.34 16.05C274.04 15.92 274.76 15.99 275.41 16.27C276.06 16.55 276.62 17.01 277.02 17.6C277.41 18.19 277.62 18.89 277.62 19.6C277.62 20.31 277.41 21 277.02 21.6C276.63 22.19 276.07 22.65 275.41 22.93C274.76 23.21 274.03 23.28 273.34 23.15C272.64 23.02 272 22.68 271.49 22.19V22.17ZM277.17 47.2H270.98V31.19C270.98 30.38 271.14 29.57 271.45 28.82C271.76 28.07 272.22 27.38 272.79 26.81C273.37 26.23 274.05 25.78 274.8 25.47C275.55 25.16 276.36 25 277.17 25V47.2Z" fill="#1E1E3C"></path><path d="M288.02 34.82V47.2H281.83V31.19C281.83 30.38 281.99 29.57 282.3 28.82C282.61 28.07 283.07 27.38 283.64 26.81C284.22 26.23 284.9 25.78 285.65 25.47C286.4 25.16 287.21 25 288.02 25V27.48C288.82 26.59 289.79 25.88 290.88 25.39C291.97 24.9 293.14 24.64 294.34 24.63C295.44 24.61 296.53 24.82 297.54 25.24C298.55 25.67 299.47 26.3 300.22 27.1C301.04 27.99 301.67 29.03 302.08 30.16C302.49 31.29 302.68 32.5 302.62 33.7V47.19H296.43V34.65C296.43 31.23 295.18 29.53 292.68 29.53C292.08 29.53 291.48 29.64 290.93 29.88C290.37 30.11 289.87 30.45 289.45 30.88C288.95 31.4 288.57 32.03 288.33 32.7C288.09 33.38 287.98 34.1 288.03 34.82H288.02Z" fill="#1E1E3C"></path></g><defs><linearGradient id="paint0_linear_884_270" x1="23.54" y1="1.29005" x2="7.71" y2="26.1" gradientUnits="userSpaceOnUse"><stop stop-color="white" stop-opacity="0"></stop><stop offset="1"></stop></linearGradient><linearGradient id="paint1_linear_884_270" x1="38.81" y1="63.61" x2="55.69" y2="36.63" gradientUnits="userSpaceOnUse"><stop stop-color="white" stop-opacity="0"></stop><stop offset="1"></stop></linearGradient><clipPath id="clip0_884_270"><rect width="484.62" height="65" fill="white"></rect></clipPath></defs></svg>