<svg xmlns="http://www.w3.org/2000/svg" width="1616" height="242" viewBox="0 0 1616 242" fill="none"><path d="M143.432 84.9902C124.884 110.748 105.483 116.701 105.483 116.701C115.79 101.042 120.319 82.2809 118.291 63.6442C116.25 48.5813 109.732 34.4783 99.5833 23.1621C89.4343 11.8459 76.1211 3.83795 61.3683 0.175475C60.3359 -0.0864165 59.2508 -0.0546218 58.2355 0.267254C57.2202 0.58913 56.315 1.18828 55.622 1.99716C54.929 2.80603 54.4758 3.79244 54.3136 4.84513C54.1513 5.89781 54.2864 6.97489 54.7036 7.9549C58.2899 16.5708 59.8246 25.9023 59.1866 35.2129C58.5486 44.5235 55.7553 53.5583 51.0273 61.6045C47.2761 67.7874 42.3438 73.171 36.5121 77.4479C21.7039 88.5567 10.6679 103.949 4.89911 121.539C-0.869713 139.129 -1.09262 158.067 4.2606 175.788C9.61382 193.509 20.2844 209.156 34.8271 220.61C49.3697 232.064 67.0816 238.772 85.5635 239.824C104.045 240.876 122.404 236.223 138.153 226.493C153.902 216.764 166.28 202.429 173.61 185.43C180.94 168.431 182.868 149.59 179.133 131.459C175.398 113.328 166.181 96.7831 152.729 84.0653C152.083 83.4614 151.315 83.0023 150.477 82.7188C149.64 82.4354 148.751 82.3341 147.871 82.4217C146.991 82.5092 146.14 82.7837 145.374 83.2267C144.608 83.6696 143.946 84.2708 143.432 84.9902V84.9902Z" fill="#E8374D"></path><path opacity="0.3" d="M148.009 82.4058C147.103 82.476 146.224 82.7439 145.433 83.1905C144.642 83.6372 143.959 84.2516 143.431 84.9909C130.078 103.514 116.251 111.792 109.539 114.994L87.0542 163.165C128.442 139.162 143.36 99.2454 148.009 82.4058Z" fill="#B9202D"></path><path opacity="0.3" d="M54.7031 7.9546C58.2893 16.5705 59.824 25.902 59.186 35.2126C58.548 44.5232 55.7548 53.558 51.0268 61.6042C47.2756 67.7872 42.3433 73.1707 36.5115 77.4476C25.3923 85.7751 16.3485 96.5603 10.0865 108.961C3.82453 121.361 0.51389 135.041 0.413086 148.933C11.7462 131.337 25.7768 115.634 41.9903 102.399C96.3515 56.41 68.91 12.9591 58.7351 0.222656C57.9257 0.405773 57.166 0.762869 56.5086 1.26921C55.8512 1.77555 55.3119 2.41897 54.9282 3.15473C54.5445 3.8905 54.3256 4.70095 54.2868 5.52984C54.2479 6.35872 54.3899 7.18615 54.7031 7.9546V7.9546Z" fill="#B9202D"></path><path opacity="0.3" d="M181 149.668C181.012 137.974 178.749 126.39 174.336 115.562C160.627 200.756 74.7209 214.441 74.7209 214.441C48.0147 199.641 45.1449 150.403 45.1449 150.403C25.8149 164.918 24.8662 193.095 27.4277 213.99C40.0768 226.518 56.1526 235.019 73.6273 238.421C91.102 241.822 109.193 239.973 125.618 233.105C142.042 226.237 156.065 214.659 165.917 199.831C175.77 185.003 181.01 167.589 180.977 149.786L181 149.668Z" fill="#B9202D"></path><path d="M118.575 197.034H64.9496C62.2381 197.034 60.04 199.232 60.04 201.944V235.006C60.04 237.718 62.2381 239.916 64.9496 239.916H118.575C121.287 239.916 123.485 237.718 123.485 235.006V201.944C123.485 199.232 121.287 197.034 118.575 197.034Z" fill="#424143"></path><path d="M64.9488 197.032H107.38C108.682 197.032 109.931 197.549 110.851 198.47C111.772 199.391 112.289 200.64 112.289 201.942V239.89H64.8539C63.5518 239.89 62.303 239.373 61.3823 238.452C60.4616 237.531 59.9443 236.283 59.9443 234.981V201.942C59.9442 201.289 60.0743 200.643 60.3269 200.041C60.5796 199.439 60.9497 198.893 61.4157 198.436C61.8817 197.979 62.4342 197.619 63.0408 197.378C63.6475 197.137 64.2961 197.02 64.9488 197.032V197.032Z" fill="#59595C"></path><path d="M82.9033 103.299L49.1055 114.257C47.1951 114.874 45.5299 116.082 44.3493 117.706C43.1688 119.329 42.5337 121.286 42.5356 123.293V142.434C42.5392 145.517 43.2792 148.555 44.6943 151.294C46.1094 154.033 48.1584 156.395 50.6709 158.182L56.1971 162.096C57.8 163.238 59.1073 164.747 60.0106 166.495C60.914 168.244 61.3873 170.183 61.3913 172.152H122.346V166.436C122.344 163.454 122.941 160.502 124.101 157.755L125.572 154.245C126.713 151.502 127.302 148.56 127.303 145.588V111.624L82.9033 103.299Z" fill="#FBC4AD"></path><path d="M79.4639 104.438C79.4639 104.438 82.9504 122.298 59.0666 125.381C58.4086 125.483 57.8084 125.816 57.3737 126.32C56.939 126.824 56.6983 127.467 56.6948 128.132V135.604C56.6948 136.176 56.9222 136.725 57.327 137.13C57.7318 137.535 58.2807 137.762 58.8531 137.762H60.964C60.964 137.762 78.6812 133.659 87.0536 148.838C87.2981 149.278 87.6557 149.644 88.0894 149.899C88.5231 150.154 89.0171 150.289 89.5202 150.289C90.0233 150.289 90.5173 150.154 90.951 149.899C91.3847 149.644 91.7423 149.278 91.9869 148.838C94.9516 143.312 101.759 136.434 117.199 136.718C118.519 136.74 119.83 136.5 121.056 136.011C122.283 135.521 123.399 134.793 124.342 133.868C125.284 132.944 126.033 131.841 126.546 130.624C127.058 129.407 127.323 128.101 127.326 126.781V111.649L82.8555 103.324L79.4639 104.438Z" fill="#E79073"></path><path d="M127.35 103.609C127.35 98.5525 123.257 94.4536 118.207 94.4536C113.158 94.4536 109.064 98.5525 109.064 103.609V126.496C109.064 131.553 113.158 135.651 118.207 135.651C123.257 135.651 127.35 131.553 127.35 126.496V103.609Z" fill="#FCD2BF"></path><path d="M125.572 98.2007C126.697 99.784 127.324 101.667 127.374 103.608C127.366 101.66 126.734 99.7647 125.572 98.2007V98.2007Z" fill="#FCD2BF"></path><path d="M109.065 99.3147C109.065 94.2585 104.971 90.1597 99.9215 90.1597C94.8719 90.1597 90.7783 94.2585 90.7783 99.3147V122.202C90.7783 127.259 94.8719 131.357 99.9215 131.357C104.971 131.357 109.065 127.259 109.065 122.202V99.3147Z" fill="#FCD2BF"></path><path d="M107.286 93.8846C106.454 92.7603 105.375 91.8433 104.131 91.2046V121.184C104.131 123.497 103.256 125.724 101.68 127.418C100.105 129.112 97.9472 130.147 95.6401 130.315L96.2331 130.6L96.494 130.718L97.1581 130.955H97.3478L97.9645 131.121H98.1542H98.9132H99.1029H99.933C101.134 131.121 102.324 130.885 103.433 130.424C104.542 129.964 105.55 129.289 106.398 128.439C107.247 127.588 107.919 126.579 108.376 125.468C108.834 124.358 109.068 123.168 109.064 121.966V99.316C109.019 97.37 108.4 95.4805 107.286 93.8846V93.8846Z" fill="#FBC4AD"></path><path d="M125.571 98.1773C124.732 97.0541 123.655 96.1308 122.417 95.4736V125.477C122.416 127.787 121.54 130.012 119.964 131.702C118.389 133.392 116.231 134.422 113.926 134.584C114.114 134.698 114.312 134.794 114.519 134.869H114.803L115.444 135.106H115.633L116.25 135.272H116.44H117.199H118.219C119.42 135.275 120.61 135.041 121.72 134.584C122.831 134.126 123.84 133.454 124.691 132.606C125.541 131.758 126.216 130.75 126.676 129.641C127.137 128.531 127.374 127.342 127.374 126.141V103.229C127.255 101.41 126.63 99.6608 125.571 98.1773V98.1773Z" fill="#FBC4AD"></path><path d="M90.7776 94.43C90.7776 89.3738 86.6841 85.2749 81.6344 85.2749C76.5848 85.2749 72.4912 89.3738 72.4912 94.43V117.318C72.4912 122.374 76.5848 126.473 81.6344 126.473C86.6841 126.473 90.7776 122.374 90.7776 117.318V94.43Z" fill="#FCD2BF"></path><path d="M88.9765 88.9975C88.1489 87.8789 87.0785 86.9626 85.8458 86.3174V116.297C85.8399 118.612 84.9591 120.84 83.3801 122.533C81.8011 124.226 79.6404 125.261 77.3311 125.428L77.9477 125.713H78.2086L78.849 125.95H79.0387L79.6554 126.116H79.8452H80.6278H80.7939H81.624C82.8263 126.116 84.0167 125.879 85.1275 125.419C86.2382 124.959 87.2475 124.285 88.0976 123.434C88.9477 122.584 89.6221 121.575 90.0821 120.464C90.5422 119.354 90.7791 118.163 90.7791 116.961V94.0494C90.6538 92.2318 90.0301 90.4838 88.9765 88.9975V88.9975Z" fill="#FBC4AD"></path><path d="M72.468 89.638C72.468 84.5818 68.3745 80.4829 63.3248 80.4829C58.2752 80.4829 54.1816 84.5818 54.1816 89.638V112.526C54.1816 117.582 58.2752 121.681 63.3248 121.681C68.3745 121.681 72.468 117.582 72.468 112.526V89.638Z" fill="#FCD2BF"></path><path d="M70.6894 84.2075C69.8582 83.0832 68.7786 82.166 67.5349 81.5273V111.507C67.535 113.82 66.6595 116.047 65.0843 117.741C63.5091 119.435 61.351 120.47 59.0439 120.638L59.6369 120.923L59.8978 121.041L60.5619 121.278H60.7516L61.3683 121.444H61.558C61.8065 121.509 62.0607 121.549 62.317 121.563H62.5067H63.3369C65.7649 121.563 68.0936 120.598 69.8105 118.881C71.5274 117.164 72.4919 114.836 72.4919 112.408V89.4965C72.4106 87.5971 71.7849 85.7612 70.6894 84.2075V84.2075Z" fill="#FBC4AD"></path><path d="M124.505 169.141H59.2099C55.7649 169.141 52.9722 171.934 52.9722 175.379V199.429C52.9722 202.874 55.7649 205.666 59.2099 205.666H124.505C127.95 205.666 130.743 202.874 130.743 199.429V175.379C130.743 171.934 127.95 169.141 124.505 169.141Z" fill="#424143"></path><path d="M124.742 193.452V169.141H59.2099C57.5534 169.147 55.9669 169.81 54.7977 170.983C53.6286 172.157 52.9722 173.746 52.9722 175.403V199.642H118.504C120.151 199.642 121.73 198.991 122.898 197.832C124.067 196.672 124.73 195.098 124.742 193.452V193.452Z" fill="#59595C"></path><path d="M72.6344 194.684C76.6558 194.684 79.9157 191.424 79.9157 187.403C79.9157 183.382 76.6558 180.122 72.6344 180.122C68.613 180.122 65.353 183.382 65.353 187.403C65.353 191.424 68.613 194.684 72.6344 194.684Z" fill="#808285"></path><path d="M65.3756 187.427C65.352 187.79 65.352 188.154 65.3756 188.518C65.7463 188.553 66.1196 188.553 66.4903 188.518C67.4474 188.521 68.3956 188.334 69.2805 187.97C70.1653 187.605 70.9693 187.069 71.646 186.392C72.3228 185.715 72.859 184.911 73.2238 184.026C73.5886 183.142 73.7748 182.193 73.7717 181.236C73.8078 180.873 73.8078 180.508 73.7717 180.145C73.401 180.109 73.0276 180.109 72.6569 180.145C71.6999 180.142 70.7516 180.328 69.8668 180.693C68.982 181.058 68.178 181.594 67.5013 182.271C66.8245 182.948 66.2883 183.752 65.9235 184.636C65.5587 185.521 65.3725 186.469 65.3756 187.427V187.427Z" fill="#939598"></path><path d="M79.7965 104.225L48.9634 114.305C47.0531 114.922 45.3878 116.13 44.2072 117.753C43.0267 119.377 42.3916 121.334 42.3936 123.341V142.482H60.9646V131.382C60.9646 131.382 89.2836 126.638 83.6151 106.264C83.5041 105.876 83.3161 105.514 83.0624 105.2C82.8087 104.886 82.4943 104.626 82.1381 104.435C81.7818 104.245 81.3909 104.128 80.9887 104.092C80.5864 104.056 80.181 104.101 79.7965 104.225Z" fill="#FBC4AD"></path><path d="M60.965 131.382C60.965 131.382 89.284 126.638 83.6155 106.264C83.5045 105.876 83.3166 105.514 83.0628 105.2C82.8091 104.886 82.4947 104.626 82.1385 104.435C81.7822 104.245 81.3914 104.128 80.9891 104.092C80.5869 104.056 80.1814 104.101 79.7969 104.225H79.4886C81.552 122.013 56.1978 126.164 56.1978 126.164V137.264H60.9413L60.965 131.382Z" fill="#F3AD95"></path><path d="M1114.54 139.341L1090.94 187.032C1090.08 188.786 1088.74 190.263 1087.08 191.296C1085.42 192.328 1083.51 192.874 1081.55 192.871V192.871C1079.6 192.869 1077.68 192.321 1076.02 191.289C1074.37 190.258 1073.03 188.783 1072.16 187.032L1048.68 139.341V200.997H1027V103H1044.8C1048.31 103.004 1051.75 104.003 1054.71 105.882C1057.68 107.762 1060.04 110.444 1061.54 113.616L1081.76 156.817L1102.17 113.576C1103.67 110.414 1106.03 107.742 1108.99 105.87C1111.95 103.998 1115.37 103.003 1118.87 103H1136.59V200.997H1114.75L1114.54 139.341Z" fill="#1E1E3C"></path><path d="M1218.34 200.997H1207.72C1205.31 200.997 1202.99 200.038 1201.28 198.33C1199.58 196.623 1198.62 194.307 1198.62 191.892V191.892C1196.31 195.07 1193.28 197.657 1189.78 199.438C1186.29 201.22 1182.41 202.146 1178.49 202.141C1171.16 202.374 1164.01 199.903 1158.4 195.199C1155.73 192.935 1153.6 190.093 1152.19 186.889C1150.77 183.685 1150.1 180.202 1150.23 176.702C1150.02 173.34 1150.68 169.979 1152.14 166.946C1153.61 163.913 1155.83 161.31 1158.6 159.389C1165.51 155.205 1173.52 153.199 1181.59 153.632H1197.31V153.224C1197.31 145.057 1193.05 141.042 1184.53 141.178C1180.58 141.224 1176.67 141.956 1172.97 143.342C1169.78 144.482 1166.3 144.535 1163.07 143.494C1159.85 142.453 1157.06 140.376 1155.13 137.585L1153.42 135.094C1163.26 127.926 1175.17 124.144 1187.35 124.315C1195.38 123.966 1203.3 126.388 1209.76 131.175C1215.51 135.748 1218.39 142.989 1218.42 152.897L1218.34 200.997ZM1197.19 172.415V168.74H1184.04C1175.63 168.74 1171.42 171.353 1171.42 176.58C1171.35 177.793 1171.59 179.004 1172.12 180.097C1172.65 181.191 1173.45 182.131 1174.44 182.827C1177.02 184.44 1180.03 185.198 1183.06 184.991C1186.65 185.036 1190.15 183.823 1192.94 181.561C1194.33 180.461 1195.44 179.048 1196.18 177.437C1196.92 175.826 1197.26 174.063 1197.19 172.292V172.415Z" fill="#1E1E3C"></path><path d="M1254.48 158.98V200.997H1233.49V146.649C1233.48 143.89 1234.02 141.156 1235.08 138.605C1236.13 136.054 1237.67 133.735 1239.62 131.782C1241.57 129.829 1243.89 128.279 1246.44 127.222C1248.98 126.165 1251.72 125.621 1254.48 125.621V125.621V134.195C1257.19 131.198 1260.5 128.791 1264.19 127.127C1267.88 125.462 1271.87 124.574 1275.91 124.518C1279.65 124.427 1283.36 125.129 1286.8 126.579C1290.24 128.029 1293.34 130.194 1295.88 132.93C1298.66 135.94 1300.81 139.472 1302.21 143.32C1303.61 147.168 1304.24 151.255 1304.05 155.346V201.16H1283.02V158.409C1283.02 146.812 1278.77 141.014 1270.28 141.014C1268.23 140.997 1266.2 141.394 1264.3 142.179C1262.41 142.965 1260.69 144.124 1259.25 145.587C1257.58 147.374 1256.3 149.485 1255.48 151.789C1254.66 154.092 1254.32 156.54 1254.48 158.98Z" fill="#1E1E3C"></path><path d="M1382.98 200.997H1372.32C1369.9 200.997 1367.59 200.038 1365.88 198.33C1364.17 196.623 1363.21 194.307 1363.21 191.892V191.892C1360.91 195.07 1357.88 197.657 1354.38 199.438C1350.88 201.22 1347.01 202.146 1343.08 202.141C1335.76 202.359 1328.62 199.89 1322.99 195.199C1320.32 192.935 1318.2 190.093 1316.78 186.889C1315.37 183.685 1314.7 180.202 1314.83 176.702C1314.62 173.337 1315.29 169.975 1316.76 166.942C1318.23 163.909 1320.47 161.308 1323.24 159.389C1330.15 155.2 1338.16 153.194 1346.23 153.632H1361.82V153.224C1361.82 145.057 1357.58 141.042 1349.08 141.178C1345.14 141.216 1341.22 141.948 1337.53 143.342V143.342C1334.34 144.482 1330.86 144.535 1327.63 143.494C1324.4 142.453 1321.61 140.376 1319.69 137.585L1317.93 135.094C1327.78 127.931 1339.68 124.149 1351.86 124.315C1359.9 123.966 1367.81 126.388 1374.28 131.175C1380.08 135.748 1382.98 142.989 1382.98 152.897V200.997ZM1361.82 172.415V168.74H1348.64C1340.22 168.74 1336.02 171.353 1336.02 176.58C1335.96 177.791 1336.2 178.998 1336.73 180.09C1337.26 181.182 1338.05 182.123 1339.04 182.827C1341.61 184.44 1344.63 185.198 1347.66 184.991C1351.25 185.036 1354.74 183.823 1357.54 181.561C1358.94 180.47 1360.06 179.059 1360.8 177.447C1361.55 175.834 1361.9 174.067 1361.82 172.292V172.415Z" fill="#1E1E3C"></path><path d="M1453.86 188.257C1450.8 191.804 1447 194.634 1442.72 196.546C1438.44 198.458 1433.8 199.406 1429.11 199.323C1424.49 199.425 1419.9 198.588 1415.61 196.861C1411.32 195.134 1407.43 192.554 1404.17 189.278C1400.72 185.758 1398.04 181.567 1396.3 176.965C1394.55 172.363 1393.76 167.45 1394 162.533C1393.82 157.487 1394.66 152.457 1396.45 147.738C1398.25 143.019 1400.97 138.706 1404.45 135.053C1407.48 131.719 1411.17 129.048 1415.28 127.207C1419.39 125.366 1423.83 124.395 1428.34 124.355C1432.67 124.302 1436.94 125.277 1440.82 127.201C1444.7 129.125 1448.06 131.942 1450.63 135.42V135.42C1450.63 134.112 1450.89 132.817 1451.39 131.608C1451.89 130.399 1452.63 129.301 1453.55 128.375C1454.48 127.45 1455.57 126.716 1456.78 126.216C1457.99 125.715 1459.29 125.457 1460.6 125.457H1471.66V191.36C1471.77 197.516 1470.57 203.626 1468.15 209.286C1466.11 214.097 1462.87 218.312 1458.76 221.535C1450.95 227.726 1441.24 231.004 1431.28 230.804C1425.46 230.755 1419.68 229.832 1414.13 228.068C1408.59 226.395 1403.39 223.755 1398.78 220.27V220.27C1400.61 216.568 1403.67 213.615 1407.44 211.912C1411.2 210.208 1415.44 209.857 1419.44 210.919C1422.48 211.848 1425.65 212.316 1428.83 212.307C1435.42 212.673 1441.93 210.627 1447.12 206.55C1449.53 204.192 1451.39 201.328 1452.55 198.164C1453.72 194.999 1454.16 191.615 1453.86 188.257V188.257ZM1450.92 161.675C1451.06 159.089 1450.69 156.5 1449.82 154.06C1448.95 151.619 1447.6 149.377 1445.86 147.466C1444.25 145.787 1442.32 144.459 1440.17 143.567C1438.03 142.674 1435.72 142.236 1433.4 142.28C1431.03 142.252 1428.67 142.697 1426.47 143.587C1424.27 144.477 1422.27 145.796 1420.58 147.466C1418.74 149.322 1417.32 151.541 1416.39 153.981C1415.46 156.421 1415.05 159.028 1415.19 161.635C1414.97 166.964 1416.85 172.166 1420.42 176.13C1422.05 177.9 1424.03 179.306 1426.24 180.256C1428.45 181.206 1430.83 181.679 1433.24 181.642C1435.61 181.708 1437.97 181.256 1440.15 180.318C1442.32 179.38 1444.27 177.979 1445.86 176.212C1449.38 172.212 1451.19 166.996 1450.92 161.675V161.675Z" fill="#1E1E3C"></path><path d="M1540.99 177.313C1542.64 179.086 1543.81 181.253 1544.39 183.606C1544.96 185.959 1544.93 188.421 1544.28 190.756C1543.63 193.09 1542.4 195.22 1540.69 196.941C1538.99 198.663 1536.87 199.918 1534.54 200.588C1530.74 201.628 1526.81 202.15 1522.86 202.139C1512.37 202.497 1502.16 198.679 1494.48 191.523C1490.7 187.865 1487.74 183.441 1485.8 178.547C1483.87 173.653 1483 168.402 1483.26 163.145C1482.9 156.509 1484.39 149.905 1487.55 144.061C1490.71 138.218 1495.43 133.362 1501.18 130.03C1507.71 126.125 1515.22 124.157 1522.82 124.354C1532.09 124.364 1541.04 127.696 1548.06 133.746C1551.68 136.954 1554.54 140.934 1556.41 145.394C1558.29 149.853 1559.15 154.677 1558.92 159.511V170.944H1504C1504.33 172.976 1505.07 174.92 1506.18 176.655C1507.29 178.389 1508.74 179.878 1510.45 181.029C1513.99 183.666 1518.28 185.098 1522.7 185.112C1526.08 185.199 1529.45 184.583 1532.58 183.304C1535.72 182.025 1538.55 180.111 1540.91 177.681L1540.99 177.313ZM1532.58 145.383C1529.62 142.908 1525.86 141.601 1522 141.708C1517.88 141.696 1513.87 143.029 1510.57 145.505C1508.9 146.689 1507.5 148.216 1506.47 149.983C1505.43 151.75 1504.78 153.718 1504.57 155.754H1537.64C1537.53 153.776 1537.02 151.841 1536.15 150.06C1535.28 148.28 1534.07 146.689 1532.58 145.383V145.383Z" fill="#1E1E3C"></path><path d="M1609.63 144.117C1606.93 143.934 1604.21 144.449 1601.76 145.615C1599.31 146.78 1597.2 148.556 1595.63 150.773C1592.31 156.008 1590.7 162.142 1591.02 168.331V200.996H1570.07V146.649C1570.06 143.886 1570.6 141.149 1571.66 138.595C1572.71 136.042 1574.26 133.721 1576.22 131.768C1578.17 129.814 1580.49 128.265 1583.04 127.21C1585.6 126.155 1588.33 125.615 1591.1 125.621V125.621V135.543C1593.97 132.343 1597.4 129.687 1601.22 127.703V127.703C1602.53 127.084 1603.97 126.805 1605.41 126.891C1606.85 126.977 1608.25 127.426 1609.47 128.195C1610.69 128.965 1611.7 130.031 1612.4 131.294C1613.1 132.557 1613.47 133.976 1613.47 135.42V144.158L1609.63 144.117Z" fill="#1E1E3C"></path><path d="M307.063 156.615H267.824V181.931H291.874C297.13 181.942 302.167 184.038 305.88 187.758C309.592 191.478 311.678 196.52 311.678 201.776H243.733V95H289.791C295.044 95 300.081 97.0864 303.795 100.8C307.509 104.514 309.595 109.551 309.595 114.803H267.824V136.975H287.464C290.041 136.975 292.593 137.484 294.974 138.471C297.354 139.459 299.517 140.906 301.337 142.73C303.158 144.554 304.601 146.72 305.583 149.103C306.566 151.485 307.069 154.038 307.063 156.615V156.615Z" fill="#1E1E3C"></path><path d="M375.253 201.776C373.029 201.774 370.875 200.993 369.167 199.568C367.459 198.143 366.304 196.165 365.903 193.977H365.453C362.708 197.124 359.289 199.613 355.451 201.26C351.613 202.906 347.454 203.669 343.282 203.491C340.055 203.669 336.825 203.186 333.792 202.071C330.758 200.956 327.984 199.233 325.641 197.008C323.297 194.782 321.432 192.102 320.162 189.13C318.891 186.158 318.241 182.958 318.252 179.727C318.252 159.637 336.259 149.96 363.698 150.123V149.021C363.698 144.938 361.452 139.058 349.57 139.058C346.827 139.059 344.092 139.332 341.403 139.874C337.693 140.603 333.843 139.94 330.59 138.012C327.337 136.084 324.907 133.026 323.764 129.421V129.421C333.099 124.716 343.447 122.375 353.898 122.603C379.704 122.603 387.911 137.792 387.911 156.044V201.817L375.253 201.776ZM364.474 165.027C351.816 165.027 342.016 167.885 342.016 177.276C341.932 178.528 342.122 179.782 342.574 180.952C343.025 182.122 343.726 183.179 344.628 184.05C345.53 184.921 346.611 185.585 347.796 185.994C348.981 186.404 350.242 186.551 351.489 186.423C354.245 186.451 356.939 185.611 359.189 184.02C361.44 182.429 363.132 180.17 364.024 177.562C364.321 176.221 364.471 174.852 364.474 173.479V165.027Z" fill="#1E1E3C"></path><path d="M396.731 187.973L421.231 157.431C425.641 152.204 429.111 148.366 433.48 143.629V143.303H399.426C399.437 138.264 401.447 133.434 405.014 129.875C408.581 126.315 413.415 124.316 418.454 124.316H462.757V138.73L439.483 168.006C435.526 172.984 431.301 177.741 426.825 182.257V182.502H464.227C464.227 185.016 463.732 187.507 462.769 189.83C461.807 192.154 460.396 194.265 458.618 196.043C456.84 197.821 454.729 199.232 452.405 200.194C450.082 201.157 447.591 201.652 445.077 201.652H396.895L396.731 187.973Z" fill="#1E1E3C"></path><path d="M492.809 124.319L504.364 162.334C505.63 166.907 507.223 172.624 508.162 176.748H508.652C509.754 172.664 511.02 166.744 512.123 162.334L515.348 149.39C517.134 142.23 521.263 135.872 527.079 131.329C532.895 126.786 540.063 124.318 547.442 124.319V124.319L529.395 175.318C518.288 206.065 510.857 218.396 502.16 226.154H501.915C499.62 228.016 496.891 229.266 493.982 229.787C491.073 230.307 488.08 230.082 485.282 229.132C482.484 228.181 479.973 226.537 477.983 224.353C475.993 222.168 474.59 219.515 473.904 216.64V216.15C477.613 215.456 481.159 214.071 484.357 212.067C488.462 209.765 491.906 206.447 494.361 202.431C495.124 201.413 495.565 200.19 495.626 198.919C495.6 197.483 495.207 196.077 494.483 194.836L476.109 148.859C475.006 146.111 474.594 143.135 474.911 140.191C475.227 137.247 476.261 134.426 477.921 131.975C479.582 129.524 481.82 127.518 484.437 126.133C487.054 124.749 489.971 124.027 492.932 124.033L492.809 124.319Z" fill="#1E1E3C"></path><path d="M648.096 111.803C654.956 117.655 658.386 126.625 658.386 138.711C658.386 150.797 654.861 159.644 647.81 165.252C640.746 170.846 630.008 173.663 615.512 173.663H602.487V200.98H580.642V102.983H615.145C630.253 103.01 641.236 105.95 648.096 111.803ZM632.049 150.348C634.956 146.698 636.41 142.103 636.132 137.445C636.356 135.171 636.005 132.877 635.114 130.773C634.222 128.669 632.818 126.822 631.028 125.4C626.197 122.643 620.651 121.392 615.104 121.807H602.487V154.758H617.186C624.495 154.758 629.436 153.288 632.049 150.348Z" fill="#1E1E3C"></path><path d="M690.317 200.98H669.288V118.05C669.288 112.473 671.504 107.124 675.447 103.18C679.391 99.2368 684.739 97.0215 690.317 97.0215V97.0215V200.98Z" fill="#1E1E3C"></path><path d="M754.75 166.232V146.756C754.75 143.974 755.298 141.221 756.364 138.652C757.429 136.083 758.991 133.75 760.959 131.785C762.928 129.82 765.264 128.263 767.835 127.203C770.406 126.142 773.161 125.599 775.942 125.605V125.605V200.98H754.75V191.058C752.569 194.487 749.549 197.303 745.977 199.239C742.404 201.175 738.397 202.168 734.334 202.124C726.654 202.336 719.195 199.537 713.55 194.325C710.6 191.299 708.324 187.682 706.875 183.712C705.425 179.743 704.833 175.511 705.139 171.296V146.796C705.139 141.187 707.367 135.807 711.334 131.84C715.3 127.874 720.68 125.645 726.29 125.645V125.645V166.682C726.29 178.223 730.536 184.008 739.029 184.035C741.069 184.058 743.091 183.664 744.973 182.877C746.854 182.091 748.556 180.929 749.972 179.462C751.634 177.702 752.915 175.62 753.737 173.344C754.559 171.068 754.904 168.647 754.75 166.232V166.232Z" fill="#1E1E3C"></path><path d="M847.519 188.321C844.459 191.868 840.656 194.698 836.379 196.61C832.103 198.522 827.459 199.47 822.775 199.387C818.157 199.485 813.567 198.649 809.28 196.93C804.993 195.211 801.097 192.644 797.826 189.383C794.385 185.854 791.707 181.655 789.958 177.047C788.209 172.439 787.426 167.52 787.659 162.597C787.482 157.557 788.315 152.533 790.11 147.82C791.906 143.107 794.626 138.802 798.112 135.158C801.138 131.817 804.822 129.138 808.932 127.29C813.043 125.441 817.492 124.464 821.999 124.419C826.324 124.376 830.599 125.355 834.473 127.278C838.348 129.201 841.712 132.013 844.293 135.484V135.484C844.293 132.853 845.339 130.329 847.2 128.468C849.06 126.608 851.584 125.562 854.216 125.562H865.322V191.179C865.43 197.335 864.233 203.445 861.81 209.105C859.766 213.916 856.535 218.131 852.419 221.354C844.615 227.545 834.898 230.823 824.939 230.623C819.116 230.594 813.332 229.671 807.79 227.887C802.252 226.214 797.054 223.574 792.437 220.089V220.089C794.276 216.389 797.338 213.441 801.104 211.743C804.871 210.046 809.109 209.706 813.098 210.779C816.148 211.674 819.31 212.128 822.489 212.126C829.083 212.492 835.586 210.446 840.782 206.369C843.162 204.04 844.999 201.216 846.164 198.097C847.328 194.977 847.791 191.64 847.519 188.321V188.321ZM844.579 161.78C844.761 159.195 844.425 156.599 843.59 154.145C842.756 151.691 841.44 149.428 839.72 147.489C838.116 145.81 836.181 144.482 834.037 143.59C831.894 142.697 829.588 142.259 827.266 142.303C824.892 142.276 822.537 142.72 820.336 143.61C818.135 144.5 816.132 145.819 814.445 147.489C812.612 149.347 811.185 151.566 810.257 154.006C809.329 156.445 808.92 159.051 809.055 161.658C808.837 166.987 810.713 172.19 814.282 176.153C815.903 177.935 817.885 179.352 820.095 180.309C822.306 181.266 824.694 181.743 827.103 181.706C829.49 181.746 831.857 181.263 834.037 180.289C836.217 179.316 838.157 177.876 839.72 176.072C843.126 172.083 844.866 166.936 844.579 161.699V161.78Z" fill="#1E1E3C"></path><path d="M882.88 116.008C880.573 113.677 879.279 110.529 879.279 107.25C879.279 103.97 880.573 100.823 882.88 98.4912C884.603 96.8056 886.786 95.6661 889.155 95.2157C891.524 94.7653 893.972 95.0237 896.195 95.9589C898.417 96.894 900.314 98.4643 901.648 100.473C902.982 102.481 903.693 104.839 903.693 107.25C903.693 109.661 902.982 112.018 901.648 114.027C900.314 116.035 898.417 117.605 896.195 118.54C893.972 119.476 891.524 119.734 889.155 119.284C886.786 118.833 884.603 117.694 882.88 116.008V116.008ZM902.152 200.98H881.124V146.632C881.118 143.869 881.659 141.132 882.713 138.579C883.768 136.025 885.317 133.704 887.271 131.751C889.225 129.797 891.545 128.248 894.099 127.194C896.652 126.139 899.389 125.598 902.152 125.604V125.604V200.98Z" fill="#1E1E3C"></path><path d="M938.984 158.963V200.979H917.955V146.631C917.95 143.868 918.49 141.132 919.545 138.578C920.6 136.024 922.148 133.704 924.102 131.75C926.056 129.796 928.376 128.248 930.93 127.193C933.484 126.138 936.221 125.598 938.984 125.603V125.603V134.014C941.695 131.009 945 128.597 948.689 126.932C952.378 125.266 956.373 124.383 960.42 124.337C964.152 124.264 967.857 124.974 971.297 126.423C974.736 127.872 977.833 130.027 980.387 132.749C983.156 135.764 985.303 139.296 986.704 143.143C988.106 146.99 988.734 151.075 988.554 155.165V200.979H967.525V158.391C967.525 146.795 963.279 140.997 954.786 140.997C952.742 140.985 950.717 141.384 948.83 142.17C946.943 142.955 945.233 144.111 943.802 145.57C942.119 147.349 940.822 149.458 939.993 151.763C939.163 154.067 938.82 156.519 938.984 158.963V158.963Z" fill="#1E1E3C"></path></svg>