<svg width="64" height="64" viewBox="0 0 64 64" fill="none" xmlns="http://www.w3.org/2000/svg">
<path d="M32 0C23.4 0 15.4 3.4 9.4 9.4C3.4 15.4 0 23.4 0 32C0 40.6 3.4 48.6 9.4 54.6C15.4 60.6 23.4 64 32 64C40.6 64 48.6 60.6 54.6 54.6C60.6 48.6 64 40.6 64 32C64 23.4 60.6 15.4 54.6 9.4C48.6 3.4 40.6 0 32 0ZM53.2 53.2C47.6 58.8 40 62 32 62C24 62 16.4 58.8 10.8 53.2C5.2 47.6 2 40 2 32C2 24 5.2 16.4 10.8 10.8C16.4 5.2 24 2 32 2C40 2 47.6 5.2 53.2 10.8C58.8 16.4 62 24 62 32C62 40 58.8 47.6 53.2 53.2Z" fill="#E8374D"/>
<path d="M44.0002 20C43.6002 19.6 43.0002 19.6 42.6002 20L32.0002 30.6L21.4002 20C21.0002 19.6 20.4002 19.6 20.0002 20C19.6002 20.4 19.6002 21 20.0002 21.4L30.6002 32L20.0002 42.5999C19.6002 42.9999 19.6002 43.6 20.0002 44C20.2002 44.2 20.4002 44.2 20.8002 44.2C21.2002 44.2 21.4002 44.2 21.6002 44L32.2002 33.4L42.8002 44C43.0002 44.2 43.2002 44.2 43.6002 44.2C44.0002 44.2 44.2002 44.2 44.4002 44C44.8002 43.6 44.8002 42.9999 44.4002 42.5999L33.4002 32L44.0002 21.4C44.4002 21 44.4002 20.4 44.0002 20Z" fill="#E8374D"/>
</svg>
