<?xml version="1.0" encoding="utf-8"?>
<!-- Generator: Adobe Illustrator 25.4.1, SVG Export Plug-In . SVG Version: 6.00 Build 0)  -->
<svg version="1.1" id="Layer_1" xmlns="http://www.w3.org/2000/svg" xmlns:xlink="http://www.w3.org/1999/xlink" x="0px" y="0px"
	 viewBox="0 0 32 32" style="enable-background:new 0 0 32 32;" xml:space="preserve">
<style type="text/css">
	.st0{fill:#E8374D;}
</style>
<g>
	<path class="st0" d="M21.4,12.9c0.3,0,0.5-0.2,0.5-0.5s-0.2-0.5-0.5-0.5H11V8.1c0-0.6-0.4-1.2-0.9-1.4C9.5,6.4,8.8,6.5,8.4,7
		l-7.9,7.9C0.2,15.2,0,15.6,0,16s0.2,0.8,0.4,1.1l8.2,8.2c0.1,0.1,0.2,0.1,0.4,0.1s0.3,0,0.4-0.1c0.2-0.2,0.2-0.5,0-0.7l-8.2-8.2
		C1.1,16.3,1,16.1,1,16s0.1-0.3,0.2-0.4l7.9-7.9c0.2-0.2,0.5-0.1,0.6-0.1S10,7.8,10,8.1v4.3c0,0.3,0.2,0.5,0.5,0.5
		C10.5,12.9,21.4,12.9,21.4,12.9z"/>
	<path class="st0" d="M23.1,6.5c-0.2-0.2-0.5-0.2-0.7,0s-0.2,0.5,0,0.7l8.4,8.4c0.1,0.1,0.2,0.2,0.2,0.4c0,0.1-0.1,0.3-0.2,0.4
		l-7.9,7.9c-0.2,0.2-0.5,0.1-0.6,0.1S22,24.3,22,23.9v-4.3c0-0.3-0.2-0.5-0.5-0.5H10.9c-0.3,0-0.5,0.2-0.5,0.5s0.2,0.5,0.5,0.5H21
		v3.8c0,0.6,0.4,1.2,0.9,1.4c0.2,0.1,0.4,0.1,0.6,0.1c0.4,0,0.8-0.2,1.1-0.5l7.9-7.9c0.3-0.3,0.4-0.7,0.4-1.1s-0.2-0.8-0.4-1.1
		L23.1,6.5z"/>
</g>
</svg>
