<svg width="149" height="149" viewBox="0 0 149 149" fill="none" xmlns="http://www.w3.org/2000/svg">
<circle cx="74.5" cy="74.5" r="74.5" fill="#FBC4AD"/>
<path fill-rule="evenodd" clip-rule="evenodd" d="M27.0453 42.7385C27.0453 42.7385 27.0453 42.7385 27.0453 42.7385H40.427C42.5269 42.7385 44.2292 44.4408 44.2292 46.5407V46.5407C44.2292 48.6406 42.5269 50.3429 40.427 50.3429H32.8227C30.6135 50.3429 28.8227 52.1337 28.8227 54.3429V56.0212C28.8227 58.2304 30.6135 60.0212 32.8227 60.0212H40.427C42.5269 60.0212 44.2292 61.7235 44.2292 63.8234V63.8234C44.2292 65.9233 42.5269 67.6256 40.427 67.6256H32.8227C30.6135 67.6256 28.8227 69.4165 28.8227 71.6256V80.7111C28.8227 82.811 27.1204 84.5133 25.0205 84.5133V84.5133C22.9206 84.5133 21.2183 82.811 21.2183 80.7111V45.652C21.2183 44.0429 22.5227 42.7385 24.1318 42.7385H27.0452C27.0453 42.7385 27.0453 42.7385 27.0453 42.7385V42.7385Z" fill="white"/>
<path fill-rule="evenodd" clip-rule="evenodd" d="M127.383 46.5951C127.383 44.4651 125.657 42.7384 123.527 42.7384H110.106C107.976 42.7384 106.249 44.4651 106.249 46.5951V46.5951C106.249 48.725 107.976 50.4517 110.106 50.4517H123.527C125.657 50.4517 127.383 48.725 127.383 46.5951V46.5951ZM102.2 46.5951C102.2 44.4651 100.473 42.7385 98.3432 42.7385H84.9223C82.7923 42.7385 81.0656 44.4651 81.0656 46.5951V46.5951C81.0656 48.7251 82.7923 50.4517 84.9223 50.4517H98.3432C100.473 50.4517 102.2 48.7251 102.2 46.5951V46.5951ZM81.0658 80.8541C81.0658 78.7241 82.7924 76.9974 84.9224 76.9974H98.3434C100.473 76.9974 102.2 78.7241 102.2 80.8541V80.8541C102.2 82.984 100.473 84.7107 98.3434 84.7107H84.9224C82.7924 84.7107 81.0658 82.984 81.0658 80.8541V80.8541ZM127.383 80.8541C127.383 78.7241 125.657 76.9974 123.527 76.9974H110.106C107.976 76.9974 106.249 78.7241 106.249 80.8541V80.8541C106.249 82.984 107.976 84.7107 110.106 84.7107H123.527C125.657 84.7107 127.383 82.984 127.383 80.8541V80.8541ZM81.0658 63.7246C81.0658 61.5946 82.7924 59.8679 84.9224 59.8679H98.3434C100.473 59.8679 102.2 61.5946 102.2 63.7246V63.7246C102.2 65.8545 100.473 67.5812 98.3434 67.5812H84.9224C82.7924 67.5812 81.0658 65.8545 81.0658 63.7246V63.7246ZM127.383 63.7246C127.383 61.5946 125.657 59.8679 123.527 59.8679H110.106C107.976 59.8679 106.249 61.5946 106.249 63.7246V63.7246C106.249 65.8545 107.976 67.5812 110.106 67.5812H123.527C125.657 67.5812 127.383 65.8545 127.383 63.7246V63.7246Z" fill="white"/>
<path fill-rule="evenodd" clip-rule="evenodd" d="M55.9812 74.8245C55.9812 72.6485 57.7452 70.8845 59.9212 70.8845V70.8845C61.3899 70.8845 62.7367 71.7014 63.4154 73.0039L68.2912 82.3615C68.9802 83.6838 70.3475 84.5132 71.8386 84.5132H72.0403C75.1027 84.5132 77.0292 81.2127 75.5233 78.5462L72.1681 72.605C71.0782 70.6751 71.8221 68.2565 73.3757 66.6758C75.8718 64.1362 77.4115 60.6537 77.4115 56.8115C77.4115 49.0392 71.1108 42.7384 63.3385 42.7384H54.9936C54.9936 42.7384 54.9936 42.7384 54.9936 42.7384V42.7384C54.9936 42.7385 54.9936 42.7385 54.9936 42.7385H51.6852C49.8581 42.7385 48.3769 44.2197 48.3769 46.0468V80.711C48.3769 82.8109 50.0792 84.5132 52.1791 84.5132V84.5132C54.2789 84.5132 55.9812 82.8109 55.9812 80.711V74.8245ZM55.9812 58.6876C55.9812 60.8967 57.7721 62.6876 59.9812 62.6876H63.3385C66.5838 62.6876 69.2146 60.0568 69.2146 56.8115C69.2146 53.5662 66.5838 50.9354 63.3385 50.9354H59.9812C57.7721 50.9354 55.9812 52.7262 55.9812 54.9354V58.6876Z" fill="white"/>
<path d="M62.2732 95.1891C62.9645 95.8455 63.3101 96.7107 63.3101 97.7848C63.3101 98.859 62.9645 99.7242 62.2732 100.381C61.5935 101.037 60.5797 101.365 59.2319 101.365H56.7953V106.539H55.5857V94.1866H59.2319C60.5682 94.1866 61.582 94.5207 62.2732 95.1891ZM56.7953 100.345H59.2319C61.1327 100.345 62.0831 99.4915 62.0831 97.7848C62.0831 96.0663 61.1327 95.207 59.2319 95.207H56.7953V100.345Z" fill="white"/>
<path d="M65.2891 94.1866H66.4987V105.572H70.8362V106.539H65.2891V94.1866Z" fill="white"/>
<path d="M80.8937 106.539L79.8914 103.657H74.3271L73.3075 106.539H72.0979L76.4872 94.1866H77.7314L82.1033 106.539H80.8937ZM74.6727 102.654H79.5285L77.1093 95.744L74.6727 102.654Z" fill="white"/>
<path d="M92.205 94.1866H93.4147V106.539H92.205L85.5175 96.1916V106.539H84.3078V94.1866H85.5175L92.205 104.534V94.1866Z" fill="white"/>
<rect opacity="0.4" x="20.8447" y="94.1866" width="27.7927" height="12.3523" rx="4" fill="white"/>
<rect opacity="0.4" x="99.5909" y="94.1866" width="27.7927" height="12.3523" rx="4" fill="white"/>
<circle cx="117" cy="17" r="14.5" fill="#FBC4AD" stroke="#FEF3EF" stroke-width="3"/>
<path d="M115.755 22.015L111.205 17.465C110.932 17.1916 110.932 16.7484 111.205 16.475L112.195 15.485C112.468 15.2117 112.912 15.2117 113.185 15.485L116.25 18.5501L122.815 11.985C123.088 11.7117 123.532 11.7117 123.805 11.985L124.795 12.975C125.068 13.2484 125.068 13.6916 124.795 13.965L116.745 22.015C116.472 22.2883 116.028 22.2883 115.755 22.015V22.015Z" fill="white"/>
</svg>
