<svg width="149" height="149" viewBox="0 0 149 149" fill="none" xmlns="http://www.w3.org/2000/svg">
<circle cx="74.5" cy="74.5" r="74.5" fill="#E79073"/>
<path d="M63.273 89.189C63.9642 89.8454 64.3099 90.7107 64.3099 91.7848C64.3099 92.8589 63.9642 93.7242 63.273 94.3806C62.5933 95.037 61.5795 95.3652 60.2316 95.3652H57.7951V100.539H56.5854V88.1865H60.2316C61.568 88.1865 62.5818 88.5207 63.273 89.189ZM57.7951 94.3448H60.2316C62.1325 94.3448 63.0829 93.4915 63.0829 91.7848C63.0829 90.0662 62.1325 89.2069 60.2316 89.2069H57.7951V94.3448Z" fill="white"/>
<path d="M66.2889 88.1865H67.4985V99.5721H71.8359V100.539H66.2889V88.1865Z" fill="white"/>
<path d="M81.8935 100.539L80.8912 97.6566H75.3269L74.3073 100.539H73.0977L77.4869 88.1865H78.7311L83.1031 100.539H81.8935ZM75.6725 96.6541H80.5283L78.109 89.744L75.6725 96.6541Z" fill="white"/>
<path d="M93.2048 88.1865H94.4145V100.539H93.2048L86.5172 90.1915V100.539H85.3076V88.1865H86.5172L93.2048 98.5338V88.1865Z" fill="white"/>
<rect opacity="0.4" x="21.8447" y="88.1865" width="27.7927" height="12.3523" rx="4" fill="white"/>
<rect opacity="0.4" x="100.591" y="88.1865" width="27.7927" height="12.3523" rx="4" fill="white"/>
<circle cx="117" cy="17" r="14.5" fill="#E79073" stroke="#FEF3EF" stroke-width="3"/>
<path d="M115.755 22.015L111.205 17.465C110.932 17.1916 110.932 16.7484 111.205 16.475L112.195 15.485C112.468 15.2117 112.912 15.2117 113.185 15.485L116.25 18.5501L122.815 11.985C123.088 11.7117 123.532 11.7117 123.805 11.985L124.795 12.975C125.068 13.2484 125.068 13.6916 124.795 13.965L116.745 22.015C116.472 22.2883 116.028 22.2883 115.755 22.015V22.015Z" fill="white"/>
<path d="M42.4336 59.0747C41.0542 59.0747 39.8272 58.2363 38.6165 57.5753C38.5491 57.5385 38.4802 57.503 38.41 57.4689C37.667 57.0954 36.7831 56.9087 35.7583 56.9087C33.8623 56.9087 32.3635 57.5062 31.2618 58.7012C30.1858 59.8963 29.6477 61.5021 29.6477 63.5187C29.6477 65.7842 30.2242 67.5145 31.3771 68.7095C32.5557 69.8797 34.2595 70.4647 36.4884 70.4647C38.5506 70.4647 40.1512 69.7578 41.2903 68.3439C41.7538 67.7686 41.2775 66.9917 40.5387 66.9917H37.1997C35.7456 66.9917 34.5669 65.813 34.5669 64.3589V64.3589C34.5669 62.9049 35.7456 61.7261 37.1997 61.7261H44.6326C46.8417 61.7261 48.6326 63.517 48.6326 65.7261V68.011C48.6326 68.5459 48.5331 69.0794 48.2917 69.5568C47.7247 70.6777 46.9673 71.7397 46.0193 72.7427C44.892 73.9627 43.4572 74.971 41.715 75.7676C39.9728 76.5394 37.9873 76.9253 35.7583 76.9253C33.0425 76.9253 30.6341 76.3651 28.5333 75.2448C26.458 74.0996 24.8439 72.5187 23.691 70.5021C22.5637 68.4606 22 66.1328 22 63.5187C22 60.9295 22.5637 58.6266 23.691 56.61C24.8439 54.5685 26.458 52.9876 28.5333 51.8672C30.6085 50.722 33.004 50.1494 35.7198 50.1494C39.1274 50.1494 41.9456 50.9461 44.1746 52.5394C45.0432 53.1603 45.7834 53.8701 46.3952 54.6686C47.9253 56.6657 45.9871 59.0747 43.4713 59.0747H42.4336Z" fill="white"/>
<path d="M64.9979 77C62.4614 77 60.1299 76.4274 58.0034 75.2822C55.8769 74.112 54.186 72.5062 52.9306 70.4647C51.7008 68.3983 51.0859 66.0705 51.0859 63.4813C51.0859 60.8921 51.7008 58.5768 52.9306 56.5353C54.186 54.4689 55.8769 52.8631 58.0034 51.7178C60.1299 50.5726 62.4614 50 64.9979 50C67.5599 50 69.8914 50.5726 71.9923 51.7178C74.1188 52.8631 75.7969 54.4689 77.0267 56.5353C78.2565 58.5768 78.8714 60.8921 78.8714 63.4813C78.8714 66.0705 78.2565 68.3983 77.0267 70.4647C75.7969 72.5062 74.1188 74.112 71.9923 75.2822C69.8658 76.4274 67.5343 77 64.9979 77ZM64.9979 70.2033C66.9194 70.2033 68.431 69.5934 69.5327 68.3734C70.66 67.1535 71.2237 65.5228 71.2237 63.4813C71.2237 61.39 70.66 59.7469 69.5327 58.5519C68.431 57.332 66.9194 56.722 64.9979 56.722C63.0507 56.722 61.5263 57.332 60.4246 58.5519C59.3229 59.7469 58.7721 61.39 58.7721 63.4813C58.7721 65.5477 59.3229 67.1909 60.4246 68.4108C61.5263 69.6058 63.0507 70.2033 64.9979 70.2033Z" fill="white"/>
<path d="M89.79 69.1369C89.79 70.2415 90.6854 71.1369 91.79 71.1369H95.4055C96.9524 71.1369 98.2064 72.3909 98.2064 73.9378V73.9378C98.2064 75.4846 96.9524 76.7386 95.4055 76.7386H86.2575C84.0484 76.7386 82.2575 74.9477 82.2575 72.7386V54.177C82.2575 52.097 83.9437 50.4108 86.0238 50.4108V50.4108C88.1038 50.4108 89.79 52.097 89.79 54.177V69.1369Z" fill="white"/>
<path d="M111.857 50.4108C114.701 50.4108 117.187 50.971 119.313 52.0913C121.465 53.1867 123.118 54.7303 124.271 56.722C125.424 58.7137 126 60.9917 126 63.556C126 66.0954 125.411 68.361 124.232 70.3527C123.079 72.3444 121.427 73.9129 119.275 75.0581C117.148 76.1784 114.676 76.7386 111.857 76.7386H105.135C102.926 76.7386 101.135 74.9477 101.135 72.7386V54.4108C101.135 52.2016 102.926 50.4108 105.135 50.4108H111.857ZM111.281 70.278C113.484 70.278 115.214 69.6929 116.469 68.5228C117.725 67.3527 118.352 65.6971 118.352 63.556C118.352 61.39 117.725 59.722 116.469 58.5519C115.214 57.3568 113.484 56.7593 111.281 56.7593V56.7593C109.838 56.7593 108.668 57.9294 108.668 59.3726V67.6647C108.668 69.108 109.838 70.278 111.281 70.278V70.278Z" fill="white"/>
</svg>
