<?xml version="1.0" encoding="utf-8"?>
<!-- Generator: Adobe Illustrator 25.4.1, SVG Export Plug-In . SVG Version: 6.00 Build 0)  -->
<svg version="1.1" id="Layer_1" xmlns="http://www.w3.org/2000/svg" xmlns:xlink="http://www.w3.org/1999/xlink" x="0px" y="0px"
	 viewBox="0 0 32 32" style="enable-background:new 0 0 32 32;" xml:space="preserve">
<style type="text/css">
	.st0{fill:#E8374D;}
</style>
<path class="st0" d="M16,32c-0.5,0-1-0.1-1.5-0.4L9.2,28c-3.8-2.6-6.1-6.8-6.1-11.5V4.5c0-1.1,0.7-2.1,1.7-2.4
	c3.5-1.3,12.7-3.8,22.4,0c1,0.4,1.7,1.4,1.7,2.4v12.1c0,4.6-2.3,8.9-6.1,11.5l-5.3,3.5C17,31.8,16.5,32,16,32z M16.4,1.1
	c-5,0-9.1,1.2-11.2,2c-0.6,0.2-1,0.8-1,1.4v12.1c0,4.3,2.1,8.2,5.7,10.6l5.3,3.5c0.5,0.4,1.2,0.4,1.8,0l5.3-3.5
	c3.5-2.4,5.7-6.3,5.7-10.6V4.4c0-0.6-0.4-1.2-1-1.4C23.2,1.6,19.6,1.1,16.4,1.1z"/>
<path class="st0" d="M19.2,19.4c-0.2,0-0.4-0.1-0.6-0.2L16,17.4l-2.5,1.8c-0.4,0.3-0.9,0.3-1.3,0c-0.4-0.3-0.5-0.7-0.4-1.2l1-3
	l-2.5-1.8c-0.4-0.3-0.5-0.7-0.4-1.2c0.1-0.4,0.5-0.7,1-0.7H14l1-3c0.1-0.4,0.5-0.7,1-0.7c0.5,0,0.9,0.3,1,0.7l0,0l1,3h3.1
	c0.5,0,0.9,0.3,1,0.7c0.1,0.4,0,0.9-0.4,1.2l-2.5,1.8l1,3c0.1,0.4,0,0.9-0.4,1.2C19.6,19.4,19.4,19.4,19.2,19.4z M16,16.3
	c0.2,0,0.4,0.1,0.6,0.2l2.5,1.8l-1-3c-0.1-0.4,0-0.9,0.4-1.2l2.5-1.8H18c-0.5,0-0.9-0.3-1-0.7l-1-3l0,0l-1,3c-0.1,0.4-0.6,0.7-1,0.7
	h-3.1l2.5,1.8c0.4,0.3,0.5,0.7,0.4,1.2l-1,3l2.5-1.8C15.6,16.4,15.8,16.3,16,16.3z"/>
</svg>
