<svg width="891" height="320" viewBox="0 0 891 320" fill="none" xmlns="http://www.w3.org/2000/svg">
<path d="M875.654 77.9577C873.386 72.2597 837.588 71.3406 831.213 77.4063C824.838 83.4719 833.235 194.308 830.477 195.166C827.718 196.024 773.102 89.5988 770.343 86.1065C767.585 82.6141 742.759 81.6338 740.491 86.1065C735.465 96.1547 749.196 265.136 743.679 272.549C738.162 279.963 634.875 277.144 631.258 281.066C627.58 284.987 630.522 311.026 636.162 313.783C643.211 317.276 756.551 309.004 767.095 303.735C777.638 298.527 768.934 165.879 776.289 165.879C783.645 165.879 828.148 304.593 831.396 308.514C834.645 312.435 853.402 310.72 858 308.514C862.597 306.309 877.922 83.5332 875.654 77.8964V77.9577Z" fill="#3A2618"/>
<path d="M726.21 212.383C731.175 209.074 728.172 195.84 726.21 192.102C724.249 188.365 703.101 192.409 699.362 190.816C696.726 189.713 697.094 177.03 698.074 174.825C699.239 172.19 712.173 173.354 713.583 171.945C716.096 169.494 715.606 156.321 714.073 153.013C712.602 149.704 699.729 152.094 697.278 150.194C694.826 148.295 698.258 118.212 700.22 115.393C702.181 112.575 715.544 114.474 718.548 113.065C721.49 111.656 721.245 99.5245 715.606 97.0124C709.169 94.0715 685.447 100.198 681.953 101.791C675.21 104.855 672.023 208.952 675.026 211.28C677.969 213.608 721.245 215.63 726.21 212.383Z" fill="#3A2618"/>
<path d="M703.1 231.376C700.341 226.168 648.177 234.133 641.127 231.376C632.852 228.129 634.63 193.451 635.978 190.387C637.633 186.772 655.594 188.365 657.616 186.405C661.11 182.973 660.375 164.654 658.352 160.059C656.268 155.463 638.369 158.772 634.936 156.137C631.503 153.503 636.285 111.656 639.043 107.735C641.802 103.813 660.375 106.448 664.543 104.487C668.65 102.527 668.282 85.6777 660.436 82.1241C651.487 78.0803 618.447 86.5968 613.604 88.8025C604.226 93.0913 600.487 260.173 604.655 263.42C608.762 266.667 696.234 261.582 703.161 257.048C710.026 252.453 705.919 236.645 703.161 231.437L703.1 231.376Z" fill="#3A2618"/>
<path d="M551.633 87.2706C544.155 103.262 560.215 224.943 551.204 228.006C546.914 229.477 522.885 110.063 516.081 110.553C509.276 111.043 500.817 239.464 492.542 239.464C486.351 239.464 486.841 105.59 483.47 100.627C480.099 95.6645 461.587 98.6667 459.135 103.446C453.005 115.516 468.023 317.031 480.834 315.805C500.695 313.906 522.762 213.73 522.762 213.73C522.762 213.73 558.989 319.788 571.678 319.788C588.474 319.788 590.006 94.0715 585.899 87.5156C578.972 76.3646 554.024 82.2465 551.633 87.3318V87.2706Z" fill="#3A2618"/>
<path d="M386.065 122.746C386.065 170.536 385.085 247.122 419.534 245.162C453.984 243.201 442.276 144.68 438.782 114.964C434.981 82.1241 386.065 87.4545 386.065 122.746ZM414.079 101.914C416.408 101.056 419.779 104.794 421.68 110.308C423.58 115.822 423.273 120.969 420.944 121.888C418.615 122.746 415.243 119.008 413.343 113.494C411.443 107.98 411.749 102.833 414.079 101.914ZM399.735 123.603C397.344 122.991 396.609 117.844 398.018 112.146C399.428 106.448 402.493 102.404 404.884 103.078C407.213 103.691 408.01 108.837 406.6 114.536C405.19 120.172 402.125 124.277 399.735 123.603ZM418.002 213.669C412.669 213.914 407.52 195.166 406.478 171.884C405.436 148.601 408.868 129.547 414.201 129.301C419.534 129.056 424.683 147.805 425.725 171.087C426.767 194.37 423.335 213.424 418.002 213.669Z" fill="#3A2618"/>
<path d="M373.5 185.057C374.91 180.216 369.822 99.5859 367.37 96.5224C362.896 90.9469 341.564 99.0344 336.967 103.385C334.821 105.406 335.128 148.969 337.886 195.105C337.886 195.105 363.447 184.444 373.5 184.995V185.057Z" fill="#3A2618"/>
<path d="M417.696 260.111C402.984 265.932 379.752 276.96 377.607 272.61C376.994 271.446 376.381 258.212 375.584 239.464C375.584 239.464 365.531 246.632 342.605 251.84C344.751 275.551 350.452 303 356.152 305.206C369.638 310.352 419.473 293.258 428.362 284.558C437.25 275.858 432.346 254.291 417.634 260.111H417.696Z" fill="#3A2618"/>
<path d="M295.467 247.061C308.953 252.208 358.788 235.114 367.676 226.413C376.565 217.713 371.661 196.146 356.949 201.967C342.238 207.787 319.006 218.816 316.86 214.466C314.715 210.116 320.845 90.0277 315.941 83.9008C311.466 78.3253 290.134 86.4129 285.537 90.763C281.062 95.0518 278.12 240.383 295.406 247L295.467 247.061Z" fill="#3A2618"/>
<path d="M192.916 249.696C200.516 254.291 213.573 251.656 218.416 249.696C222.829 247.919 217.435 205.521 218.048 195.472C220.5 202.151 223.81 208.278 224.974 207.787C225.894 207.42 225.833 199.7 225.158 192.286C225.158 191.612 225.587 191.061 226.262 191C226.507 191 226.691 191 226.936 191C227.549 191 228.101 191.367 228.223 191.98C229.449 199.884 231.717 208.339 233.127 208.216C234.598 208.155 235.886 199.945 236.253 192.164C236.253 191.49 236.866 190.938 237.602 191.061C238.154 191.061 238.583 191.551 238.705 192.103C239.625 199.822 241.28 207.787 242.261 207.787C243.241 207.787 244.712 201.048 245.632 193.879C248.758 201.844 244.529 239.648 248.329 245.039C252.436 250.921 261.937 247 268.128 241.792C274.319 236.584 266.044 54.0014 224.729 71.892C183.414 89.7827 185.192 244.855 193.038 249.634L192.916 249.696ZM229.572 103.446C241.402 101.608 247.839 156.566 245.755 160.242C244.038 163.245 217.006 163.735 215.412 159.691C211.305 149.214 218.293 105.223 229.572 103.507V103.446Z" fill="#3A2618"/>
<path d="M225.097 142.965C229.02 142.965 232.207 139.962 232.207 136.225C232.207 132.488 229.02 129.485 225.097 129.485C221.174 129.485 217.986 132.488 217.986 136.225C217.986 139.962 221.174 142.965 225.097 142.965ZM225.097 133.652C226.507 133.652 227.61 134.755 227.61 136.164C227.61 137.573 226.445 138.676 225.097 138.676C223.748 138.676 222.584 137.512 222.584 136.164C222.584 134.816 223.748 133.652 225.097 133.652Z" fill="#3A2618"/>
<path d="M176.304 273.897C169.255 271.814 165.883 241.547 164.29 205.337C177.836 204.111 175.323 202.212 174.894 198.658C174.71 196.943 170.297 194.921 163.799 192.96C162.021 140.085 163.247 80.286 162.083 76.9774C159.937 71.0956 133.824 69.5026 132.169 76.9774C130.698 83.7171 131.679 135.306 134.56 186.895C123.465 184.75 109.366 183.218 104.401 182.973C102.501 182.851 99.4974 182.545 95.7582 182.116C93.3062 126.238 96.0034 81.4501 94.4096 76.9774C90.8543 67.1743 54.9949 67.3582 51.6848 73.0562C49.1103 77.5289 51.5009 126.054 55.1175 178.194C39.2413 177.398 25.4492 178.317 23.9167 183.954C20.9131 194.737 28.4528 202.457 57.1403 205.704C61.1247 259.131 65.6608 308.821 66.7028 311.21C68.8483 316.418 93.0611 321.013 97.3519 315.805C99.3748 313.355 94.6548 261.888 95.513 207.297C98.8231 207.297 102.256 207.297 105.872 207.175C116.293 206.991 128.553 206.807 135.786 206.562C138.483 247.796 142.406 285.232 147.187 294.851C158.589 317.766 288.173 299.446 297.429 294.851C306.685 290.256 305.275 272.61 300.249 262.133C295.284 251.656 194.142 279.166 176.365 273.897H176.304Z" fill="#3A2618"/>
<path d="M551.511 36.4173C551.756 43.7083 552.185 57.3101 551.511 58.7806C550.53 60.8024 544.584 60.8637 540.906 59.6996C538.025 58.8418 540.293 43.2182 541.397 36.1722C530.118 29.5551 529.995 7.74321 531.773 4.67974C533.244 2.10643 541.764 2.65785 542.745 4.67974C543.726 6.70163 538.7 24.3472 548.875 23.7345C559.112 23.1218 554.821 5.59877 557.15 3.88323C559.48 2.16769 566.958 2.47404 567.571 4.67974C568.123 6.70163 566.468 33.4763 551.511 36.4173Z" fill="#F58750"/>
<path d="M525.031 14.2377C523.866 -0.160566 495.547 -2.305 492.543 2.71909C489.846 7.25302 490.765 42.7279 490.398 56.7586C490.275 61.0475 501.002 60.4961 502.964 56.1459C505.722 49.9577 501.247 35.3144 506.519 34.089C511.791 32.8023 526.073 26.124 525.092 14.2377H525.031ZM503.515 20.7935C503.638 18.3428 502.78 11.2968 504.128 9.21362C505.416 7.253 516.878 11.4193 516.327 16.2596C515.775 21.0999 503.454 23.2443 503.577 20.7935H503.515Z" fill="#F58750"/>
<path d="M484.144 14.2377C482.98 -0.160566 454.66 -2.305 451.656 2.71909C448.959 7.25302 449.879 42.7279 449.511 56.7586C449.388 61.0475 460.115 60.4961 462.077 56.1459C464.835 49.9577 460.361 35.3144 465.632 34.089C470.904 32.8023 485.186 26.124 484.206 14.2377H484.144ZM462.629 20.7935C462.751 18.3428 461.893 11.2968 463.242 9.21362C464.468 7.253 475.992 11.4193 475.44 16.2596C474.888 21.0999 462.567 23.2443 462.69 20.7935H462.629Z" fill="#F58750"/>
<path d="M421.313 1.43242C405.927 6.51777 407.644 57.4326 410.525 59.0869C413.283 60.6186 416.348 60.4348 418.125 59.7608C419.903 59.0869 419.168 41.38 419.903 40.0934C420.639 38.8067 427.627 37.8264 429.282 38.6229C431.059 39.5419 430.998 57.5551 432.531 59.5158C434.063 61.5376 439.273 59.7608 439.764 57.3713C440.315 54.5529 441.051 -5.00087 421.374 1.49368L421.313 1.43242ZM429.037 27.2268C428.546 28.4522 418.738 30.3515 418.371 27.9008C417.329 21.2224 420.7 10.9292 423.275 10.9292C426.585 10.9292 429.956 24.6535 429.037 27.2268Z" fill="#F58750"/>
<path d="M396.304 58.2904C396.488 56.5748 396.61 43.2181 395.997 34.089C400.656 33.7826 399.798 33.2925 399.614 32.4347C399.553 32.0058 398.02 31.5157 395.814 31.0255C395.201 17.7301 395.63 2.71907 395.201 1.92257C394.465 0.452107 385.699 0.0232214 385.148 1.92257C384.657 3.63811 384.964 16.566 385.945 29.5551C382.144 29.0036 378.527 28.636 376.811 28.5747C376.137 28.5747 375.156 28.4522 373.869 28.3909C373.93 13.3799 373.93 3.0867 373.378 1.98385C372.152 -0.46692 359.893 -0.466943 358.728 1.00352C357.87 2.10637 358.728 14.299 359.893 27.4106C354.437 27.2268 349.717 27.4106 349.227 28.8811C348.185 31.5769 350.759 33.5376 360.628 34.3341C361.977 47.752 363.571 60.251 363.877 60.8637C364.613 62.1504 372.704 63.3144 374.175 62.0278C374.85 61.4151 374.482 50.0803 374.175 34.7629C375.34 34.7629 376.014 34.7629 377.24 34.7629C380.796 34.7629 383.799 34.6404 386.251 34.5791C387.171 44.9337 388.151 57.4326 389.193 60.0059C389.929 61.7827 395.814 60.4961 396.059 58.4742L396.304 58.2904Z" fill="#F58750"/>
<path d="M869.954 72.2597C867.686 66.5617 831.888 65.6426 825.513 71.7083C819.138 77.7739 827.536 188.61 824.778 189.468C822.019 190.326 767.403 83.9008 764.644 80.4085C761.886 76.9161 737.06 75.9358 734.792 80.4085C729.766 90.4567 743.496 259.438 737.98 266.851C732.463 274.265 629.175 271.446 625.559 275.368C621.881 279.289 624.823 305.328 630.463 308.085C637.512 311.578 750.852 303.306 761.395 298.037C771.939 292.829 763.234 160.181 770.59 160.181C777.946 160.181 822.448 298.895 825.697 302.816C828.946 306.737 847.703 305.022 852.301 302.816C856.898 300.611 872.222 77.8352 869.954 72.1984V72.2597Z" fill="#F58750"/>
<path d="M720.511 206.685C725.476 203.376 722.473 190.142 720.511 186.404C718.55 182.667 697.402 186.711 693.663 185.118C691.027 184.015 691.394 171.332 692.375 169.127C693.54 166.492 706.474 167.656 707.884 166.247C710.397 163.796 709.906 150.623 708.374 147.315C706.903 144.006 694.03 146.396 691.578 144.496C689.126 142.597 692.559 112.514 694.521 109.695C696.482 106.877 709.845 108.776 712.849 107.367C715.791 105.958 715.546 93.8265 709.906 91.3145C703.47 88.3735 679.748 94.5005 676.254 96.0935C669.511 99.1569 666.324 203.254 669.327 205.582C672.269 207.91 715.546 209.932 720.511 206.685Z" fill="#F58750"/>
<path d="M697.4 225.678C694.642 220.47 642.477 228.435 635.428 225.678C627.153 222.431 628.93 187.753 630.279 184.689C631.934 181.074 649.894 182.667 651.917 180.707C655.411 177.275 654.676 158.956 652.653 154.361C650.569 149.765 632.67 153.074 629.237 150.439C625.804 147.805 630.586 105.958 633.344 102.037C636.102 98.1155 654.676 100.75 658.844 98.7894C662.951 96.8288 662.583 79.9797 654.737 76.4261C645.787 72.3823 612.748 80.8988 607.905 83.1045C598.527 87.3933 594.787 254.475 598.956 257.722C603.063 260.969 690.535 255.884 697.462 251.35C704.327 246.755 700.22 230.947 697.462 225.739L697.4 225.678Z" fill="#F58750"/>
<path d="M545.934 81.5728C538.456 97.5641 554.516 219.245 545.505 222.308C541.214 223.779 517.185 104.365 510.381 104.855C503.577 105.345 495.118 233.766 486.843 233.766C480.652 233.766 481.142 99.8923 477.771 94.9295C474.399 89.9667 455.887 92.9689 453.435 97.7479C447.306 109.818 462.324 311.333 475.135 310.107C494.996 308.208 517.063 208.033 517.063 208.033C517.063 208.033 553.29 314.09 565.979 314.09C582.774 314.09 584.307 88.3737 580.2 81.8179C573.273 70.6669 548.325 76.5487 545.934 81.6341V81.5728Z" fill="#F58750"/>
<path d="M380.366 117.048C380.366 164.838 379.385 241.424 413.835 239.464C448.285 237.503 436.577 138.982 433.083 109.266C429.282 76.4261 380.366 81.7565 380.366 117.048ZM411.199 98.1154C413.528 97.2576 416.9 100.995 418.8 106.509C420.7 112.024 420.394 117.17 418.064 118.089C415.796 118.947 412.364 115.21 410.464 109.695C408.563 104.181 408.87 99.0344 411.199 98.1154ZM396.855 119.805C394.465 119.131 393.729 114.045 395.139 108.347C396.549 102.649 399.614 98.6056 402.004 99.2795C404.334 99.8922 405.131 105.039 403.721 110.737C402.311 116.374 399.246 120.479 396.855 119.805ZM412.302 208.033C406.97 208.278 401.82 189.529 400.778 166.247C399.736 142.965 403.169 123.91 408.502 123.665C413.835 123.42 418.984 142.168 420.026 165.45C421.068 188.733 417.635 207.788 412.302 208.033Z" fill="#F58750"/>
<path d="M367.801 179.359C369.211 174.518 364.123 93.8879 361.671 90.8244C357.196 85.2489 335.865 93.3364 331.267 97.6865C329.122 99.7084 329.428 143.271 332.187 189.407C332.187 189.407 357.748 178.746 367.801 179.297V179.359Z" fill="#F58750"/>
<path d="M411.996 254.414C397.285 260.234 374.053 271.263 371.907 266.913C371.295 265.748 370.682 252.514 369.885 233.766C369.885 233.766 359.832 240.934 336.906 246.142C339.052 269.853 344.752 297.302 350.453 299.508C363.939 304.654 413.774 287.56 422.662 278.86C431.551 270.16 426.647 248.593 411.935 254.414H411.996Z" fill="#F58750"/>
<path d="M289.768 241.363C303.253 246.51 353.089 229.416 361.977 220.715C370.865 212.015 365.962 190.448 351.25 196.269C336.538 202.089 313.306 213.118 311.161 208.768C309.016 204.418 315.145 84.3297 310.241 78.2028C305.767 72.6273 284.435 80.7149 279.838 85.065C275.363 89.3538 272.421 234.685 289.707 241.302L289.768 241.363Z" fill="#F58750"/>
<path d="M187.216 243.998C194.817 248.593 207.874 245.958 212.716 243.998C217.13 242.221 211.736 199.823 212.349 189.774C214.8 196.453 218.111 202.58 219.275 202.089C220.195 201.722 220.133 194.002 219.459 186.588C219.459 185.914 219.888 185.363 220.563 185.302C220.808 185.302 220.992 185.302 221.237 185.302C221.85 185.302 222.401 185.669 222.524 186.282C223.75 194.186 226.018 202.641 227.428 202.518C228.899 202.457 230.186 194.247 230.554 186.466C230.554 185.792 231.167 185.24 231.903 185.363C232.454 185.363 232.883 185.853 233.006 186.405C233.925 194.124 235.581 202.089 236.561 202.089C237.542 202.089 239.013 195.35 239.933 188.181C243.059 196.146 238.829 233.95 242.63 239.341C246.737 245.223 256.238 241.302 262.429 236.094C268.62 230.886 260.345 48.3034 219.03 66.194C177.715 84.0847 179.493 239.157 187.339 243.936L187.216 243.998ZM223.873 97.7477C235.703 95.9097 242.139 150.868 240.055 154.544C238.339 157.547 211.306 158.037 209.713 153.993C205.606 143.516 212.594 99.5246 223.873 97.809V97.7477Z" fill="#F58750"/>
<path d="M224.179 142.597C228.102 142.597 231.29 139.595 231.29 135.857C231.29 132.12 228.102 129.118 224.179 129.118C220.256 129.118 217.068 132.12 217.068 135.857C217.068 139.595 220.256 142.597 224.179 142.597ZM224.179 133.284C225.589 133.284 226.692 134.387 226.692 135.796C226.692 137.205 225.528 138.308 224.179 138.308C222.83 138.308 221.666 137.144 221.666 135.796C221.666 134.448 222.83 133.284 224.179 133.284Z" fill="#F58750"/>
<path d="M170.605 268.199C163.555 266.116 160.184 235.849 158.59 199.639C172.137 198.413 169.624 196.514 169.195 192.96C169.011 191.245 164.598 189.223 158.1 187.262C156.322 134.387 157.548 74.588 156.384 71.2794C154.238 65.3976 128.125 63.8046 126.47 71.2794C124.999 78.0191 125.98 129.608 128.861 181.197C117.766 179.052 103.667 177.521 98.702 177.275C96.8018 177.153 93.7981 176.847 90.059 176.418C87.607 120.54 90.3041 75.7521 88.7104 71.2794C85.1551 61.4763 49.2957 61.6602 45.9856 67.3582C43.4111 71.8309 45.8017 120.356 49.4183 172.496C33.5421 171.7 19.75 172.619 18.2175 178.256C15.2139 189.039 22.7536 196.759 51.4411 200.006C55.4255 253.433 59.9616 303.123 61.0036 305.512C63.1491 310.72 87.3618 315.315 91.6527 310.107C93.6755 307.657 88.9556 256.19 89.8138 201.599C93.1239 201.599 96.5566 201.599 100.173 201.477C110.594 201.293 122.853 201.109 130.087 200.864C132.784 242.098 136.707 279.534 141.488 289.153C152.89 312.068 282.474 293.748 291.73 289.153C300.986 284.558 299.576 266.912 294.55 256.435C289.584 245.958 188.442 273.468 170.666 268.199H170.605Z" fill="#F58750"/>
<path d="M0.0112142 186.833C-0.295277 189.407 5.77324 190.019 6.87661 189.223C8.22517 188.181 9.81892 184.505 6.87661 183.464C3.9343 182.422 0.379003 183.831 0.0112142 186.833Z" fill="#F58750"/>
<path d="M140.568 303.245C140.568 301.775 144.614 305.757 149.886 308.453C155.464 311.333 161.839 313.048 161.471 314.703C160.735 317.95 140.63 316.541 140.568 303.245Z" fill="#F58750"/>
<path d="M175.141 316.847C174.65 318.256 172.75 316.602 170.972 315.989C169.133 315.377 168.337 316.357 168.398 313.906C168.459 312.436 172.137 311.639 173.976 312.252C175.815 312.864 175.631 315.438 175.141 316.847Z" fill="#F58750"/>
<path d="M721.612 83.4719C721.122 84.7586 717.322 85.9227 715.605 85.31C713.889 84.7586 713.337 84.3297 713.46 82.0628C713.521 80.7148 715.973 81.1437 717.689 81.6951C719.406 82.2465 722.103 82.1853 721.612 83.4719Z" fill="#F58750"/>
<path d="M12.332 196.024C12.332 196.024 22.8753 203.438 29.3116 204.295C35.7479 205.153 12.7611 210.851 12.332 196.024Z" fill="#F58750"/>
<path d="M171.093 77.4677C171.093 78.448 170.235 79.2446 169.193 79.2446C168.151 79.2446 167.293 78.448 167.293 77.4677C167.293 76.4874 168.151 75.6909 169.193 75.6909C170.235 75.6909 171.093 76.4874 171.093 77.4677Z" fill="#F58750"/>
<path d="M150.375 58.5967C148.536 61.17 154.605 59.2094 160.735 62.8855C163.187 64.356 163.371 65.3363 165.884 69.3801C167.723 72.321 167.784 63.1306 163.187 58.7192C160.612 56.2072 153.624 54.0628 150.375 58.658V58.5967Z" fill="#F58750"/>
<path d="M334.944 294.422C337.58 294.422 337.212 300.304 340.828 304.042C347.449 310.843 352.352 306.921 352.475 309.678C352.536 312.436 338.438 316.786 334.944 307.473C331.756 299.018 333.595 294.361 334.944 294.361V294.422Z" fill="#F58750"/>
<path d="M334.577 286.151C333.78 289.276 331.022 291.604 330.593 289.582C330.164 287.621 330.531 276.838 333.045 279.289C334.577 280.759 334.822 285.232 334.577 286.151Z" fill="#F58750"/>
<path d="M442.952 266.3C441.235 267.586 439.519 273.591 440.745 274.326C441.971 275.061 444.116 272.733 444.607 271.263C445.526 268.751 444.116 265.381 442.891 266.3H442.952Z" fill="#F58750"/>
<path d="M280.206 74.2203C280.206 76.7937 275.609 76.1197 273.524 80.2247C272.911 81.3888 272.605 88.925 271.44 88.925C270.276 88.925 268.927 76.7324 271.011 75.6295C273.095 74.5267 280.145 70.9731 280.206 74.1591V74.2203Z" fill="#F58750"/>
<path d="M288.297 72.0759C288.42 73.0562 287.439 74.0366 286.029 74.2204C284.619 74.4042 283.393 73.7302 283.21 72.7499C283.087 71.7696 284.068 70.7893 285.478 70.6055C286.887 70.4216 288.113 71.0956 288.297 72.0759Z" fill="#F58750"/>
<path d="M378.649 94.3779C381.224 96.8287 382.695 85.4938 400.042 82.9205C405.805 82.0628 394.464 76.671 386.128 82.798C380.917 86.6579 377.362 93.1525 378.649 94.3779Z" fill="#F58750"/>
<path d="M411.995 80.8375C410.279 80.041 414.754 78.6319 415.796 77.7741C416.838 76.9163 420.209 78.0192 418.37 79.8573C416.531 81.6953 414.57 82.0017 411.934 80.8375H411.995Z" fill="#F58750"/>
<path d="M507.804 288.173C503.759 291.91 497.322 309.678 498.364 310.169C499.407 310.659 505.965 302.204 506.211 299.998C506.701 295.28 511.544 284.681 507.804 288.173Z" fill="#F58750"/>
<path d="M512.953 273.284C512.953 273.284 509.275 278.737 509.95 280.943C510.624 283.149 516.141 275.245 512.953 273.284Z" fill="#F58750"/>
<path d="M535.941 84.5137C538.393 86.5969 537.473 105.039 535.696 104.855C533.918 104.61 532.508 100.628 532.692 94.9908C532.876 89.9667 534.163 83.0433 535.879 84.5137H535.941Z" fill="#F58750"/>
<path d="M538.393 115.087C538.822 118.212 537.596 120.908 535.634 121.153C533.673 121.398 533.427 118.824 533.06 115.7C532.631 112.575 532.263 110.063 534.163 109.818C536.063 109.573 537.964 111.962 538.393 115.026V115.087Z" fill="#F58750"/>
<path d="M661.358 69.7478C663.994 68.8288 668.53 75.2008 666.078 77.8354C663.626 80.47 664.423 75.5071 661.787 74.0979C659.029 72.6275 660.071 70.1767 661.358 69.8091V69.7478Z" fill="#F58750"/>
<path d="M669.387 81.5115C670.674 82.4305 671.655 86.9645 669.387 87.6384C667.119 88.3124 665.525 78.7544 669.387 81.5115Z" fill="#F58750"/>
<path d="M609.375 275.306C609.375 275.306 616.241 274.02 616.118 275.858C615.199 286.519 618.018 300.059 615.444 299.875C612.869 299.692 606.739 279.228 609.375 275.306Z" fill="#F58750"/>
<path d="M612.624 303.552C612.624 303.552 619.367 303.552 617.957 308.759C617.344 311.088 612.44 305.696 612.624 303.552Z" fill="#F58750"/>
<path d="M777.516 281.494C777.516 281.494 775.984 296.996 775.065 299.385C774.145 301.775 782.788 297.67 782.788 296.138C782.788 294.606 779.049 293.136 780.336 290.807C781.562 288.479 782.482 280.821 777.516 281.494Z" fill="#F58750"/>
<path d="M781.012 270.956C781.012 273.652 780.031 275.858 778.866 275.858C777.701 275.858 776.721 273.652 776.721 270.956C776.721 268.26 777.701 266.055 778.866 266.055C780.031 266.055 781.012 268.26 781.012 270.956Z" fill="#F58750"/>
<path d="M877.003 62.4565C877.126 65.8264 884.42 65.0912 885.585 70.2378C886.933 76.3034 886.872 83.2881 888.159 83.717C890.918 84.6361 891.531 65.3975 889.201 63.682C886.933 61.9664 876.88 60.0671 876.942 62.5178L877.003 62.4565Z" fill="#F58750"/>
<path d="M889.937 97.3801C889.692 102.282 888.405 106.203 886.995 106.142C885.585 106.142 884.666 102.098 884.85 97.1963C885.033 92.2948 886.382 88.3735 887.792 88.4348C889.202 88.4348 890.121 92.4786 889.937 97.3801Z" fill="#F58750"/>
<path d="M42.3688 223.473C42.3688 224.453 41.5107 225.249 40.4686 225.249C39.4265 225.249 38.5684 224.453 38.5684 223.473C38.5684 222.492 39.4265 221.696 40.4686 221.696C41.5107 221.696 42.3688 222.492 42.3688 223.473Z" fill="#F58750"/>
<path d="M231.351 220.715C231.351 221.696 230.493 222.492 229.451 222.492C228.409 222.492 227.551 221.696 227.551 220.715C227.551 219.735 228.409 218.938 229.451 218.938C230.493 218.938 231.351 219.735 231.351 220.715Z" fill="#F58750"/>
<path d="M332.308 86.903C332.308 87.8833 331.45 88.6799 330.408 88.6799C329.366 88.6799 328.508 87.8833 328.508 86.903C328.508 85.9227 329.366 85.1262 330.408 85.1262C331.45 85.1262 332.308 85.9227 332.308 86.903Z" fill="#F58750"/>
<path d="M100.968 165.818C100.968 166.798 100.11 167.595 99.0682 167.595C98.0261 167.595 97.168 166.798 97.168 165.818C97.168 164.838 98.0261 164.041 99.0682 164.041C100.11 164.041 100.968 164.838 100.968 165.818Z" fill="#F58750"/>
<path d="M646.461 196.943C646.461 197.923 645.602 198.72 644.56 198.72C643.518 198.72 642.66 197.923 642.66 196.943C642.66 195.963 643.518 195.166 644.56 195.166C645.602 195.166 646.461 195.963 646.461 196.943Z" fill="#F58750"/>
<path d="M455.824 85.4939C455.824 86.4742 454.966 87.2707 453.924 87.2707C452.882 87.2707 452.023 86.4742 452.023 85.4939C452.023 84.5135 452.882 83.717 453.924 83.717C454.966 83.717 455.824 84.5135 455.824 85.4939Z" fill="#F58750"/>
<path d="M728.355 258.702C728.355 259.683 727.497 260.479 726.455 260.479C725.413 260.479 724.555 259.683 724.555 258.702C724.555 257.722 725.413 256.926 726.455 256.926C727.497 256.926 728.355 257.722 728.355 258.702Z" fill="#F58750"/>
<path d="M438.355 247.919C438.355 248.899 437.497 249.696 436.455 249.696C435.413 249.696 434.555 248.899 434.555 247.919C434.555 246.939 435.413 246.142 436.455 246.142C437.497 246.142 438.355 246.939 438.355 247.919Z" fill="#F58750"/>
<path d="M781.808 81.1438C781.808 82.1241 780.95 82.9206 779.908 82.9206C778.866 82.9206 778.008 82.1241 778.008 81.1438C778.008 80.1635 778.866 79.3669 779.908 79.3669C780.95 79.3669 781.808 80.1635 781.808 81.1438Z" fill="#F58750"/>
<path d="M803.201 97.6864C803.201 98.6667 802.343 99.4633 801.301 99.4633C800.259 99.4633 799.4 98.6667 799.4 97.6864C799.4 96.7061 800.259 95.9097 801.301 95.9097C802.343 95.9097 803.201 96.7061 803.201 97.6864Z" fill="#F58750"/>
<path d="M705.185 118.089C705.185 119.07 704.327 119.866 703.285 119.866C702.243 119.866 701.385 119.07 701.385 118.089C701.385 117.109 702.243 116.312 703.285 116.312C704.327 116.312 705.185 117.109 705.185 118.089Z" fill="#F58750"/>
<path d="M309.873 256.925C309.873 257.906 309.015 258.702 307.973 258.702C306.93 258.702 306.072 257.906 306.072 256.925C306.072 255.945 306.93 255.149 307.973 255.149C309.015 255.149 309.873 255.945 309.873 256.925Z" fill="#F58750"/>
</svg>
