<?xml version="1.0" encoding="utf-8"?>
<!-- Generator: Adobe Illustrator 25.4.1, SVG Export Plug-In . SVG Version: 6.00 Build 0)  -->
<svg version="1.1" id="Layer_1" xmlns="http://www.w3.org/2000/svg" xmlns:xlink="http://www.w3.org/1999/xlink" x="0px" y="0px"
	 viewBox="0 0 35 32" style="enable-background:new 0 0 35 32;" xml:space="preserve">
<style type="text/css">
	.st0{fill:#E8374D;}
</style>
<g>
	<path class="st0" d="M30.1,27.5c0.4-0.4,0.7-0.7,1.1-1.1c0.2-0.2,0.2-0.5-0.1-0.7c-0.2-0.2-0.5-0.2-0.7,0.1c-0.3,0.4-0.6,0.7-1,1.1
		c-0.2,0.2-0.2,0.5,0,0.7c0.1,0.1,0.2,0.2,0.4,0.2C29.9,27.6,30,27.5,30.1,27.5z"/>
	<path class="st0" d="M14.7,31.4h0.1c0.2,0,0.4-0.1,0.5-0.4s-0.1-0.5-0.3-0.6c-1-0.3-2-0.7-2.9-1.1c-0.2-0.1-0.5,0-0.7,0.2
		c-0.1,0.2,0,0.5,0.2,0.7C12.6,30.7,13.6,31.1,14.7,31.4z"/>
	<path class="st0" d="M27,28.7c-0.9,0.6-1.8,1-2.8,1.4c-0.3,0.1-0.4,0.4-0.3,0.6s0.3,0.3,0.5,0.3c0.1,0,0.1,0,0.2,0
		c1-0.4,2-0.9,3-1.5c0.2-0.1,0.3-0.5,0.2-0.7C27.5,28.6,27.2,28.5,27,28.7z"/>
	<path class="st0" d="M8.8,28.4c0.1,0.1,0.2,0.1,0.3,0.1s0.3-0.1,0.4-0.2c0.2-0.2,0.1-0.5-0.1-0.7c-0.8-0.7-1.5-1.4-2.2-2.2
		c-0.2-0.2-0.5-0.3-0.7-0.1c-0.2,0.2-0.2,0.5-0.1,0.7C7.2,26.9,8,27.7,8.8,28.4z"/>
	<path class="st0" d="M18.1,31c-0.3,0-0.5,0.2-0.5,0.5s0.2,0.5,0.5,0.5s0.6,0,1,0c0.8,0,1.6-0.1,2.4-0.2c0.3,0,0.5-0.3,0.4-0.6
		c0-0.3-0.3-0.5-0.6-0.4C20.2,31,19.1,31,18.1,31z"/>
	<path class="st0" d="M5.1,23.5c0.1,0,0.2,0,0.2-0.1c0.2-0.1,0.3-0.4,0.2-0.7c-0.2-0.4-0.4-0.9-0.6-1.3c-0.1-0.3-0.4-0.4-0.6-0.3
		C4,21.2,3.9,21.5,4,21.7c0.2,0.5,0.4,1,0.6,1.4C4.8,23.4,4.9,23.5,5.1,23.5z"/>
	<path class="st0" d="M19,0C10.5,0,3.6,6.6,3,14.9l-2.1-2.7c-0.2-0.2-0.5-0.3-0.7-0.1C0,12.4,0,12.7,0.1,12.9l3,3.8
		c0.1,0.1,0.2,0.2,0.4,0.2c0.1,0,0.2,0,0.3-0.1l3.8-3c0.2-0.2,0.3-0.5,0.1-0.7C7.5,12.9,7.2,12.8,7,13l-3,2.4C4.3,7.4,10.9,1,19,1
		c8.3,0,15,6.7,15,15c0,2.4-0.6,4.8-1.7,7c-0.1,0.2,0,0.5,0.2,0.7c0.1,0,0.2,0.1,0.2,0.1c0.2,0,0.4-0.1,0.4-0.3
		c1.2-2.3,1.8-4.9,1.8-7.4C35,7.2,27.8,0,19,0z"/>
	<path class="st0" d="M19,5.5c-0.3,0-0.5,0.2-0.5,0.5v7c-1.5,0.2-2.6,1.5-2.6,3c0,1.7,1.4,3.1,3.1,3.1c1,0,1.8-0.5,2.4-1.2l5.4,3
		c0.1,0,0.2,0.1,0.2,0.1c0.2,0,0.3-0.1,0.4-0.3c0.1-0.2,0.1-0.5-0.2-0.7l-5.3-3c0.1-0.3,0.2-0.7,0.2-1c0-1.5-1.1-2.8-2.5-3V6
		C19.5,5.7,19.3,5.5,19,5.5z M21,16c0,1.1-0.9,2.1-2.1,2.1s-2.1-0.9-2.1-2.1s0.9-2.1,2.1-2.1S21,14.9,21,16z"/>
</g>
</svg>
