<svg width="23" height="32" viewBox="0 0 23 32" fill="none" xmlns="http://www.w3.org/2000/svg">
<path d="M21.4775 13.1479C20.9617 12.7987 20.2521 12.3667 19.3565 11.9476V7.57304C19.3565 3.52185 16.0232 0.228638 11.9226 0.228638C7.82206 0.228638 4.49133 3.52185 4.49133 7.57304V11.6372C3.2554 12.1494 2.30488 12.7108 1.66073 13.1505C1.03491 13.5774 0.663086 14.2785 0.663086 15.0287V20.9968C0.663086 26.9468 5.54659 31.7715 11.5691 31.7715C17.5917 31.7715 22.4752 26.9468 22.4752 20.9968V15.0287C22.4752 14.2785 22.1033 13.5748 21.4775 13.1505V13.1479ZM6.10171 7.57304C6.10171 4.40141 8.71235 1.82221 11.9226 1.82221C15.1329 1.82221 17.7435 4.40141 17.7435 7.57304V11.2931C16.0887 10.7136 14.02 10.2687 11.5691 10.2687C9.456 10.2687 7.62829 10.5998 6.10171 11.0629V7.57304ZM13.2214 24.4711C13.3288 24.8876 13.0093 25.2938 12.572 25.2938H10.6527C10.2232 25.2938 9.90376 24.898 10.0006 24.484L10.8726 20.7795C10.0478 20.5053 9.45338 19.7344 9.45338 18.8263C9.45338 17.6881 10.3882 16.7645 11.5403 16.7645C12.6925 16.7645 13.6273 17.6881 13.6273 18.8263C13.6273 19.7137 13.0591 20.4665 12.263 20.7588L13.2162 24.4685L13.2214 24.4711Z" fill="#8D8F93"/>
</svg>
