<?xml version="1.0" encoding="utf-8"?>
<!-- Generator: Adobe Illustrator 25.4.1, SVG Export Plug-In . SVG Version: 6.00 Build 0)  -->
<svg version="1.1" id="Layer_1" xmlns="http://www.w3.org/2000/svg" xmlns:xlink="http://www.w3.org/1999/xlink" x="0px" y="0px"
	 viewBox="0 0 32 32" style="enable-background:new 0 0 32 32;" xml:space="preserve">
<style type="text/css">
	.st0{fill:#E8374D;}
</style>
<g>
	<circle class="st0" cx="16" cy="20.6" r="3.1"/>
	<path class="st0" d="M20.7,2c-1.3-1.3-3-2-4.7-2c-3.7,0-6.7,3-6.7,6.7v2.6H7.6c-2.5,0-4.5,2-4.5,4.5v13.7c0,2.5,2,4.5,4.5,4.5h16.8
		c2.5,0,4.5-2,4.5-4.5V13.8c0-2.5-2-4.5-4.5-4.5h-1.7V6.7C22.7,4.9,22,3.2,20.7,2z M10.3,6.7C10.3,3.6,12.9,1,16,1
		c1.5,0,2.9,0.6,4,1.7s1.7,2.5,1.7,4v2.6H10.3V6.7z M27.9,13.8v13.7c0,1.9-1.6,3.5-3.5,3.5H7.6c-1.9,0-3.5-1.6-3.5-3.5V13.8
		c0-1.9,1.6-3.5,3.5-3.5h16.8C26.3,10.3,27.9,11.9,27.9,13.8z"/>
</g>
</svg>
