<?xml version="1.0" encoding="utf-8"?>
<!-- Generator: Adobe Illustrator 25.4.1, SVG Export Plug-In . SVG Version: 6.00 Build 0)  -->
<svg version="1.1" id="Layer_1" xmlns="http://www.w3.org/2000/svg" xmlns:xlink="http://www.w3.org/1999/xlink" x="0px" y="0px"
	 viewBox="0 0 32 32" style="enable-background:new 0 0 32 32;" xml:space="preserve">
<style type="text/css">
	.st0{fill:#E8374D;}
</style>
<g>
	<path class="st0" d="M26.3,1H5.7C2.6,1,0,3.6,0,6.8v21.9c0,0.9,0.5,1.7,1.4,2.1C1.7,30.9,2,31,2.3,31c0.6,0,1.1-0.2,1.6-0.7
		l4.5-4.5h17.9c3.2,0,5.7-2.6,5.7-5.7V6.8C32,3.6,29.4,1,26.3,1z M31,20c0,2.6-2.1,4.7-4.7,4.7H8.1l0,0c-0.1,0-0.3,0.1-0.4,0.2
		l-4.6,4.6c-0.4,0.4-1,0.4-1.4,0.3C1.4,29.7,1,29.3,1,28.7V6.8C1,4.2,3.1,2,5.7,2h20.5C28.9,2,31,4.2,31,6.8V20z"/>
	<path class="st0" d="M23.8,9.5H8.3C8,9.5,7.8,9.7,7.8,10s0.2,0.5,0.5,0.5h15.5c0.3,0,0.5-0.2,0.5-0.5S24.1,9.5,23.8,9.5z"/>
	<path class="st0" d="M23.8,17.3H8.3c-0.3,0-0.5,0.2-0.5,0.5s0.2,0.5,0.5,0.5h15.5c0.3,0,0.5-0.2,0.5-0.5S24.1,17.3,23.8,17.3z"/>
</g>
</svg>
