<?xml version="1.0" encoding="utf-8"?>
<!-- Generator: Adobe Illustrator 25.4.1, SVG Export Plug-In . SVG Version: 6.00 Build 0)  -->
<svg version="1.1" id="Layer_1" xmlns="http://www.w3.org/2000/svg" xmlns:xlink="http://www.w3.org/1999/xlink" x="0px" y="0px"
	 viewBox="0 0 32 32" style="enable-background:new 0 0 32 32;" xml:space="preserve">
<style type="text/css">
	.st0{fill:#E8374D;}
</style>
<path class="st0" d="M16,32C7.2,32,0,24.8,0,16S7.2,0,16,0s16,7.2,16,16S24.8,32,16,32z M16,1C7.7,1,1,7.7,1,16s6.7,15,15,15
	s15-6.7,15-15S24.3,1,16,1z"/>
<path class="st0" d="M20.9,14.9c-0.2-0.2-0.5-0.2-0.7,0L17,18v-8c0-0.3-0.2-0.5-0.5-0.5S16,9.7,16,10v8l-3.1-3.1
	c-0.2-0.2-0.5-0.2-0.7,0s-0.2,0.5,0,0.7l4,4c0.1,0.1,0.2,0.1,0.4,0.1s0.3,0,0.4-0.1l4-4C21,15.4,21,15.1,20.9,14.9z"/>
<path class="st0" d="M22,23H11c-0.3,0-0.5-0.2-0.5-0.5S10.7,22,11,22h11c0.3,0,0.5,0.2,0.5,0.5S22.3,23,22,23z"/>
</svg>
