<svg width="149" height="149" viewBox="0 0 149 149" fill="none" xmlns="http://www.w3.org/2000/svg">
<circle cx="74.5" cy="74.5" r="74.5" fill="#E8374D"/>
<path d="M65.273 83.189C65.9642 83.8454 66.3099 84.7107 66.3099 85.7848C66.3099 86.8589 65.9642 87.7242 65.273 88.3806C64.5933 89.037 63.5795 89.3652 62.2316 89.3652H59.7951V94.5389H58.5854V82.1865H62.2316C63.568 82.1865 64.5818 82.5207 65.273 83.189ZM59.7951 88.3448H62.2316C64.1325 88.3448 65.0829 87.4915 65.0829 85.7848C65.0829 84.0662 64.1325 83.2069 62.2316 83.2069H59.7951V88.3448Z" fill="white"/>
<path d="M68.2889 82.1865H69.4985V93.5721H73.8359V94.5389H68.2889V82.1865Z" fill="white"/>
<path d="M83.8935 94.5389L82.8912 91.6566H77.3269L76.3073 94.5389H75.0977L79.4869 82.1865H80.7311L85.1031 94.5389H83.8935ZM77.6725 90.6541H82.5283L80.109 83.744L77.6725 90.6541Z" fill="white"/>
<path d="M95.2048 82.1865H96.4145V94.5389H95.2048L88.5172 84.1915V94.5389H87.3076V82.1865H88.5172L95.2048 92.5338V82.1865Z" fill="white"/>
<rect opacity="0.4" x="23.8447" y="82.1865" width="27.7927" height="12.3523" rx="4" fill="white"/>
<rect opacity="0.4" x="102.591" y="82.1865" width="27.7927" height="12.3523" rx="4" fill="white"/>
<circle cx="117" cy="17" r="14.5" fill="#E8374D" stroke="#FEF3EF" stroke-width="3"/>
<path d="M115.755 22.015L111.205 17.465C110.932 17.1916 110.932 16.7484 111.205 16.475L112.195 15.485C112.468 15.2117 112.912 15.2117 113.185 15.485L116.25 18.5501L122.815 11.985C123.088 11.7117 123.532 11.7117 123.805 11.985L124.795 12.975C125.068 13.2484 125.068 13.6916 124.795 13.965L116.745 22.015C116.472 22.2883 116.028 22.2883 115.755 22.015V22.015Z" fill="white"/>
<path d="M35.8148 64.9508C35.8148 65.8497 35.6027 66.6713 35.1785 67.4157C34.7684 68.1461 34.1391 68.736 33.2906 69.1854C32.4563 69.6208 31.4311 69.8385 30.215 69.8385H28.1575V72.7738C28.1575 73.9219 27.2268 74.8525 26.0787 74.8525V74.8525C24.9307 74.8525 24 73.9219 24 72.7738V60H30.215C31.4169 60 32.4351 60.2107 33.2694 60.632C34.1179 61.0534 34.7542 61.6362 35.1785 62.3806C35.6027 63.125 35.8148 63.9817 35.8148 64.9508ZM29.8119 66.552C30.9856 66.552 31.5725 66.0183 31.5725 64.9508C31.5725 63.8694 30.9856 63.3287 29.8119 63.3287H28.1575V66.552H29.8119Z" fill="white"/>
<path d="M41.6425 70.6892H44.2061C45.3558 70.6892 46.2878 71.6212 46.2878 72.7709V72.7709C46.2878 73.9205 45.3558 74.8525 44.2061 74.8525H37.485V62.0787C37.485 60.9307 38.4157 60 39.5638 60V60C40.7118 60 41.6425 60.9307 41.6425 62.0787V70.6892Z" fill="white"/>
<path d="M57.3647 72.4298H52.0618L51.7177 73.464C51.4419 74.2931 50.6662 74.8525 49.7924 74.8525V74.8525C48.3817 74.8525 47.4015 73.4486 47.8875 72.1243L51.6158 61.9663C52.0494 60.7851 53.1739 60 54.4321 60H55.0339C56.2936 60 57.419 60.7869 57.8515 61.9699L61.5592 72.111C62.046 73.4425 61.0602 74.8525 59.6425 74.8525V74.8525C58.7637 74.8525 57.9835 74.2899 57.7061 73.456L57.3647 72.4298ZM56.3253 69.2697L54.7132 64.4663L53.1224 69.2697H56.3253Z" fill="white"/>
<path d="M71.5164 60C72.424 60 73.1597 60.7357 73.1597 61.6433V61.6433C73.1597 62.5508 72.424 63.2865 71.5164 63.2865H69.1719V72.7738C69.1719 73.9219 68.2413 74.8525 67.0932 74.8525V74.8525C65.9452 74.8525 65.0145 73.9219 65.0145 72.7738V63.2865H62.7124C61.8049 63.2865 61.0691 62.5508 61.0691 61.6433V61.6433C61.0691 60.7357 61.8049 60 62.7124 60H71.5164Z" fill="white"/>
<path d="M76.7766 60C77.9246 60 78.8553 60.9307 78.8553 62.0787V72.7738C78.8553 73.9219 77.9246 74.8525 76.7766 74.8525V74.8525C75.6285 74.8525 74.6979 73.9219 74.6979 72.7738V62.0787C74.6979 60.9307 75.6285 60 76.7766 60V60Z" fill="white"/>
<path d="M95.074 72.1442C95.074 73.64 93.8614 74.8525 92.3656 74.8525V74.8525C91.4603 74.8525 90.6148 74.4002 90.1125 73.647L85.3803 66.552V72.7738C85.3803 73.9219 84.4496 74.8525 83.3016 74.8525V74.8525C82.1535 74.8525 81.2229 73.9219 81.2229 72.7738V62.7018C81.2229 61.2096 82.4325 60 83.9246 60V60C84.8333 60 85.6812 60.4568 86.181 61.2157L90.9165 68.4059V62.0787C90.9165 60.9307 91.8472 60 92.9952 60V60C94.1433 60 95.074 60.9307 95.074 62.0787V72.1442Z" fill="white"/>
<path d="M99.4467 60C100.589 60 101.515 60.9259 101.515 62.0681V68.6166C101.515 69.4171 101.699 70.0351 102.066 70.4705C102.448 70.9059 103.021 71.1236 103.784 71.1236C104.548 71.1236 105.121 70.9059 105.503 70.4705C105.899 70.0211 106.096 69.4031 106.096 68.6166V62.0787C106.096 60.9307 107.027 60 108.175 60V60C109.323 60 110.254 60.9307 110.254 62.0787V68.6166C110.254 69.9789 109.964 71.1447 109.384 72.1138C108.804 73.0688 108.013 73.7921 107.009 74.2837C106.019 74.7612 104.916 75 103.7 75C102.483 75 101.395 74.7612 100.433 74.2837C99.4856 73.7921 98.7361 73.0688 98.1846 72.1138C97.6472 71.1587 97.3786 69.993 97.3786 68.6166V62.0681C97.3786 60.9259 98.3045 60 99.4467 60V60Z" fill="white"/>
<path d="M127.037 60C128.673 60 130 61.3265 130 62.9628V72.7738C130 73.9219 129.069 74.8525 127.921 74.8525V74.8525C126.773 74.8525 125.843 73.9219 125.843 72.7738V66.6573L123.588 73.208C123.249 74.192 122.323 74.8525 121.282 74.8525V74.8525C120.241 74.8525 119.315 74.1919 118.977 73.2078L116.7 66.5941V72.7738C116.7 73.9219 115.77 74.8525 114.622 74.8525V74.8525C113.474 74.8525 112.543 73.9219 112.543 72.7738V62.9853C112.543 61.3366 113.88 60 115.528 60V60C116.759 60 117.864 60.7556 118.31 61.9028L121.325 69.6489L124.268 61.9096C124.705 60.76 125.807 60 127.037 60V60Z" fill="white"/>
</svg>
