<?xml version="1.0" encoding="utf-8"?>
<!-- Generator: Adobe Illustrator 25.4.1, SVG Export Plug-In . SVG Version: 6.00 Build 0)  -->
<svg version="1.1" id="Layer_1" xmlns="http://www.w3.org/2000/svg" xmlns:xlink="http://www.w3.org/1999/xlink" x="0px" y="0px"
	 viewBox="0 0 40 32" style="enable-background:new 0 0 40 32;" xml:space="preserve">
<style type="text/css">
	.st0{fill:#E8374D;}
</style>
<g>
	<path class="st0" d="M10.5,15.3c2.8,0,5-2.2,5-5s-2.2-5-5-5s-5,2.2-5,5S7.7,15.3,10.5,15.3z M10.5,6.3c2.2,0,4,1.8,4,4s-1.8,4-4,4
		s-4-1.8-4-4S8.3,6.3,10.5,6.3z"/>
	<path class="st0" d="M40,30.5v-29C40,0.7,39.3,0,38.5,0h-37C0.7,0,0,0.7,0,1.5v29C0,31.3,0.7,32,1.5,32h37C39.3,32,40,31.3,40,30.5
		z M1,30.5v-29C1,1.2,1.2,1,1.5,1h37C38.8,1,39,1.2,39,1.5v29c0,0.3-0.2,0.5-0.5,0.5h-37C1.2,31,1,30.8,1,30.5z"/>
	<path class="st0" d="M27.7,11.1c-0.5-0.5-1.4-0.5-1.9,0L14.6,22.2c-0.1,0.1-0.4,0.1-0.5,0l-2.6-2.4c-0.5-0.5-1.4-0.5-1.9,0l-7,7
		c-0.2,0.2-0.2,0.5,0,0.7c0.1,0.1,0.2,0.1,0.4,0.1s0.3,0,0.4-0.1l7-7c0.1-0.1,0.4-0.1,0.5,0l2.6,2.4c0.5,0.5,1.4,0.5,1.9,0
		l11.1-11.1c0.1-0.1,0.4-0.1,0.5,0l9.6,9.6c0.2,0.2,0.5,0.2,0.7,0s0.2-0.5,0-0.7L27.7,11.1z"/>
</g>
</svg>
