<?xml version="1.0" encoding="utf-8"?>
<!-- Generator: Adobe Illustrator 25.4.1, SVG Export Plug-In . SVG Version: 6.00 Build 0)  -->
<svg version="1.1" id="Layer_1" xmlns="http://www.w3.org/2000/svg" xmlns:xlink="http://www.w3.org/1999/xlink" x="0px" y="0px"
	 viewBox="0 0 32 32" style="enable-background:new 0 0 32 32;" xml:space="preserve">
<style type="text/css">
	.st0{fill:#E8374D;}
</style>
<g>
	<path class="st0" d="M20.4,7.9h-8.7c-1.4,0-2.5,1.1-2.5,2.5v14.7c0,3.8,3.1,6.9,6.9,6.9s6.9-3.1,6.9-6.9V10.5
		C22.9,9.1,21.7,7.9,20.4,7.9z M21.8,25.1c0,3.2-2.6,5.8-5.8,5.8s-5.8-2.6-5.8-5.8V10.5c0-0.8,0.7-1.5,1.5-1.5h8.7
		c0.8,0,1.5,0.7,1.5,1.5L21.8,25.1L21.8,25.1z"/>
	<path class="st0" d="M16,12.3c-1.2,0-2.3,1-2.3,2.3s1,2.3,2.3,2.3s2.3-1,2.3-2.3S17.2,12.3,16,12.3z M16,15.8
		c-0.7,0-1.2-0.5-1.2-1.2s0.5-1.2,1.2-1.2c0.7,0,1.2,0.5,1.2,1.2S16.7,15.8,16,15.8z"/>
	<path class="st0" d="M13.9,5.3c-0.2,0.2-0.2,0.5,0,0.7s0.5,0.2,0.7,0c0.7-0.7,1.9-0.7,2.7,0c0.1,0.1,0.2,0.2,0.4,0.2
		c0.1,0,0.3-0.1,0.4-0.2c0.2-0.2,0.2-0.5,0-0.7C16.9,4.1,15.1,4.1,13.9,5.3z"/>
	<path class="st0" d="M19.1,4.6c0.1,0,0.3-0.1,0.4-0.2c0.2-0.2,0.2-0.5,0-0.7c-1.9-1.9-5.1-1.9-7,0c-0.2,0.2-0.2,0.5,0,0.7
		c0.2,0.2,0.5,0.2,0.7,0c1.5-1.5,4-1.5,5.5,0C18.9,4.5,19,4.6,19.1,4.6z"/>
	<path class="st0" d="M11.5,2.9c2.5-2.5,6.5-2.5,9,0C20.6,3,20.7,3,20.8,3c0.2,0,0.3,0,0.4-0.1c0.2-0.2,0.2-0.5,0-0.7
		c-2.9-2.9-7.6-2.9-10.4,0c-0.2,0.2-0.2,0.5,0,0.7C11,3.1,11.3,3.1,11.5,2.9z"/>
	<path class="st0" d="M4.2,13.1c-0.2-0.2-0.5-0.2-0.7,0L0.6,16l2.9,2.9C3.6,19,3.7,19,3.8,19s0.3-0.1,0.4-0.2c0.2-0.2,0.2-0.5,0-0.7
		L2.1,16l2.1-2.1C4.4,13.7,4.4,13.3,4.2,13.1z"/>
	<path class="st0" d="M28.5,13.1c-0.2-0.2-0.5-0.2-0.7,0s-0.2,0.5,0,0.7l2.1,2.1L27.8,18c-0.2,0.2-0.2,0.5,0,0.7
		C27.9,19,28,19,28.2,19s0.3-0.1,0.4-0.2l2.9-2.9L28.5,13.1z"/>
</g>
</svg>
