<?xml version="1.0" encoding="utf-8"?>
<!-- Generator: Adobe Illustrator 25.4.1, SVG Export Plug-In . SVG Version: 6.00 Build 0)  -->
<svg version="1.1" id="Layer_1" xmlns="http://www.w3.org/2000/svg" xmlns:xlink="http://www.w3.org/1999/xlink" x="0px" y="0px"
	 viewBox="0 0 32 32" style="enable-background:new 0 0 32 32;" xml:space="preserve">
<style type="text/css">
	.st0{fill:#E8374D;}
</style>
<g>
	<path class="st0" d="M10.2,12c-3.5-0.4-7,0.7-9.4,3.2c-0.1,0.1-0.3,0.3-0.4,0.4c-0.5,0.5-0.6,1.2-0.2,1.9c0.3,0.6,1,0.9,1.7,0.8
		c2.4-0.4,4.8,0.1,6.9,1.3c-1,1.2-1.7,2.5-2,4c-0.1,0.5,0,0.9,0.4,1.2c0.3,0.3,0.6,0.4,1,0.4c0.1,0,0.2,0,0.3,0c1.5-0.3,2.9-1,4-2
		c1.2,2.1,1.7,4.5,1.3,6.9c-0.1,0.7,0.2,1.4,0.8,1.7c0.2,0.1,0.5,0.2,0.8,0.2c0.4,0,0.8-0.1,1.1-0.4c0.1-0.1,0.3-0.2,0.4-0.4
		c2.3-2.3,3.6-5.9,3.1-9.4c1.4-1,2.7-2.1,4-3.3C28.4,14,31.3,8,32,1.6c0-0.4-0.1-0.9-0.4-1.2C31.2,0.1,30.8,0,30.4,0
		C24,0.7,18,3.6,13.5,8.1C12.3,9.3,11.2,10.6,10.2,12z M30.5,1c0.1,0,0.3,0,0.4,0.1S31,1.4,31,1.5c-0.7,6.2-3.4,11.8-7.8,16.3
		c-1.1,1.1-2.2,2-3.5,2.9c-0.4-1.8-1.4-3.6-2.9-5.1c-0.2-0.2-0.5-0.2-0.7,0s-0.2,0.5,0,0.7c3.5,3.5,4.4,9.7,0,14.2
		c-0.1,0.1-0.2,0.2-0.4,0.3c-0.3,0.3-0.6,0.1-0.7,0.1c-0.2-0.1-0.4-0.3-0.3-0.7c0.5-2.8-0.2-5.7-1.7-8.1l0,0l0,0l0,0
		c0,0-0.1,0-0.1-0.1c0,0,0,0-0.1,0h-0.1c0,0,0,0-0.1,0h-0.1c0,0,0,0-0.1,0c0,0,0,0-0.1,0l0,0l0,0c-1.1,1.1-2.5,1.8-4,2.1
		C8.1,24.1,8,24,8,24s-0.1-0.2-0.1-0.3c0.3-1.5,1-2.9,2.1-4l0,0l0,0c0,0,0,0,0-0.1v-0.1v-0.1v-0.1v-0.1v-0.1c0,0,0-0.1-0.1-0.1l0,0
		l0,0l0,0c-2.4-1.6-5.2-2.2-8-1.7c-0.3,0.1-0.6-0.1-0.7-0.3c0-0.1-0.2-0.4,0.1-0.7c0.1-0.1,0.2-0.2,0.3-0.4c2.3-2.3,5.6-3.4,8.9-2.9
		l0,0l0,0l0,0c0.1,0,0.1,0,0.2,0c0,0,0,0,0.1,0h0.1c0,0,0.1,0,0.1-0.1c0,0,0,0,0.1-0.1c1-1.4,2.1-2.8,3.3-4
		C18.6,4.4,24.3,1.7,30.5,1z"/>
	<path class="st0" d="M22.1,12.9c0.8,0,1.6-0.3,2.1-0.9c1.2-1.2,1.2-3.1,0-4.2c-1.1-1.1-3.1-1.1-4.2,0c-1.2,1.2-1.2,3.1,0,4.2
		C20.6,12.5,21.3,12.9,22.1,12.9z M20.7,8.4c0.4-0.4,0.9-0.6,1.4-0.6s1,0.2,1.4,0.6c0.8,0.8,0.8,2,0,2.8s-2.1,0.8-2.8,0
		C19.9,10.5,19.9,9.2,20.7,8.4z"/>
	<path class="st0" d="M5.4,25.9l-1.7,1.7c-0.2,0.2-0.2,0.5,0,0.7c0.1,0.1,0.2,0.1,0.4,0.1s0.3,0,0.4-0.1l1.7-1.7
		c0.2-0.2,0.2-0.5,0-0.7S5.6,25.7,5.4,25.9z"/>
	<path class="st0" d="M5.4,20.9L1.3,25c-0.2,0.2-0.2,0.5,0,0.7c0.1,0.1,0.2,0.1,0.4,0.1s0.3,0,0.4-0.1l4.2-4.2
		c0.2-0.2,0.2-0.5,0-0.7S5.6,20.7,5.4,20.9z"/>
	<path class="st0" d="M6.2,30.6c0.1,0.1,0.2,0.1,0.4,0.1s0.3,0,0.4-0.1l4.2-4.2c0.2-0.2,0.2-0.5,0-0.7s-0.5-0.2-0.7,0l-4.2,4.2
		C6,30.1,6,30.4,6.2,30.6z"/>
</g>
</svg>
