<svg width="149" height="149" viewBox="0 0 149 149" fill="none" xmlns="http://www.w3.org/2000/svg">
<circle cx="74.5" cy="74.5" r="74.5" fill="#BDBDBD"/>
<path d="M62.273 86.189C62.9642 86.8454 63.3099 87.7107 63.3099 88.7848C63.3099 89.8589 62.9642 90.7242 62.273 91.3806C61.5933 92.037 60.5795 92.3652 59.2316 92.3652H56.7951V97.5389H55.5854V85.1865H59.2316C60.568 85.1865 61.5818 85.5207 62.273 86.189ZM56.7951 91.3448H59.2316C61.1325 91.3448 62.0829 90.4915 62.0829 88.7848C62.0829 87.0662 61.1325 86.2069 59.2316 86.2069H56.7951V91.3448Z" fill="white"/>
<path d="M65.2889 85.1865H66.4985V96.5722H70.8359V97.5389H65.2889V85.1865Z" fill="white"/>
<path d="M80.8935 97.5389L79.8912 94.6566H74.3269L73.3073 97.5389H72.0977L76.4869 85.1865H77.7311L82.1031 97.5389H80.8935ZM74.6725 93.6541H79.5283L77.109 86.744L74.6725 93.6541Z" fill="white"/>
<path d="M92.2048 85.1865H93.4145V97.5389H92.2048L85.5173 87.1915V97.5389H84.3076V85.1865H85.5173L92.2048 95.5338V85.1865Z" fill="white"/>
<rect opacity="0.4" x="20.8447" y="85.1865" width="27.7927" height="12.3523" rx="4" fill="white"/>
<rect opacity="0.4" x="99.5908" y="85.1865" width="27.7927" height="12.3523" rx="4" fill="white"/>
<circle cx="117" cy="17" r="14.5" fill="#BDBDBD" stroke="white" stroke-width="3"/>
<path d="M115.755 22.015L111.205 17.465C110.932 17.1916 110.932 16.7484 111.205 16.475L112.195 15.485C112.468 15.2117 112.912 15.2117 113.185 15.485L116.25 18.5501L122.815 11.985C123.088 11.7117 123.532 11.7117 123.805 11.985L124.795 12.975C125.068 13.2484 125.068 13.6916 124.795 13.965L116.745 22.015C116.472 22.2883 116.028 22.2883 115.755 22.015Z" fill="white"/>
<path d="M30.6909 75.4022C27.922 75.4022 25.6485 74.7469 23.8701 73.4365C22.6295 72.5066 21.7888 71.3017 21.3479 69.822C21.0202 68.7222 21.9651 67.7429 23.1127 67.7429H26.2122C27.2543 67.7429 27.9734 68.6752 28.6736 69.4471C28.7138 69.4915 28.7559 69.5334 28.8 69.573C29.2277 69.9571 29.7792 70.1491 30.4545 70.1491C31.0623 70.1491 31.5575 70.0022 31.9402 69.7085C32.3454 69.3922 32.548 68.9629 32.548 68.4207C32.548 67.7203 32.2216 67.178 31.5688 66.7939C30.916 66.4098 29.858 65.9805 28.3948 65.5061C26.8415 64.9864 25.5809 64.4893 24.613 64.0149C23.6675 63.5178 22.8346 62.8061 22.1143 61.8798C21.4164 60.9308 21.0675 59.6995 21.0675 58.1857C21.0675 56.6493 21.4502 55.3389 22.2156 54.2543C22.9809 53.1473 24.0389 52.3113 25.3896 51.7464C26.7402 51.1816 28.271 50.8992 29.9818 50.8992C32.7506 50.8992 34.9566 51.5544 36.5999 52.8648C37.7401 53.7464 38.5165 54.8767 38.929 56.2557C39.2563 57.35 38.3115 58.3212 37.1693 58.3212H33.8917C32.8795 58.3212 32.173 57.3479 31.3999 56.6945C30.9947 56.333 30.4657 56.1522 29.8129 56.1522C29.3177 56.1522 28.9125 56.2991 28.5974 56.5928C28.2822 56.8865 28.1246 57.3045 28.1246 57.8468C28.1246 58.2986 28.2935 58.694 28.6311 59.0329C28.9913 59.3493 29.4303 59.6317 29.948 59.8802C30.4657 60.1061 31.2311 60.3999 32.2441 60.7614C33.7523 61.281 34.9904 61.8007 35.9584 62.3203C36.9488 62.8174 37.793 63.5291 38.4908 64.4555C39.2111 65.3592 39.5713 66.5115 39.5713 67.9123C39.5713 69.3357 39.2111 70.6123 38.4908 71.742C37.793 72.8717 36.7687 73.7641 35.4181 74.4193C34.09 75.0745 32.5142 75.4022 30.6909 75.4022Z" fill="white"/>
<path d="M45.9571 51.272C47.7846 51.272 49.2661 52.7535 49.2661 54.581V71.8559C49.2661 73.6834 47.7846 75.1649 45.9571 75.1649C44.1295 75.1649 42.648 73.6834 42.648 71.8559V54.581C42.648 52.7535 44.1295 51.272 45.9571 51.272Z" fill="white"/>
<path d="M59.6531 68.0813C59.6531 69.1859 60.5486 70.0813 61.6531 70.0813H64.5061C65.9099 70.0813 67.0479 71.2193 67.0479 72.6231C67.0479 74.0269 65.9099 75.1649 64.5061 75.1649H55.035C53.9304 75.1649 53.035 74.2695 53.035 73.1649V54.581C53.035 52.7535 54.5165 51.272 56.3441 51.272C58.1716 51.272 59.6531 52.7535 59.6531 54.581V68.0813Z" fill="white"/>
<path d="M85.3638 51.272C87.6306 51.272 89.2236 53.5033 88.4874 55.6473L82.9441 71.7889C82.2505 73.8086 80.3507 75.1649 78.2152 75.1649H76.8742C74.741 75.1649 72.8428 73.8115 72.1474 71.7949L66.5875 55.6711C65.8446 53.5167 67.445 51.272 69.7239 51.272C71.1742 51.272 72.4565 52.214 72.8899 53.5981L76.6067 65.4657C76.8997 66.4014 78.2244 66.4003 78.5158 65.464L82.2104 53.5931C82.6401 52.2125 83.9179 51.272 85.3638 51.272Z" fill="white"/>
<path d="M124.4 75.1649C123.295 75.1649 122.279 74.5572 121.757 73.5832L118.003 66.5872C117.926 66.4432 117.776 66.3533 117.613 66.3533C117.368 66.3533 117.169 66.552 117.169 66.797V72.1649C117.169 73.8218 115.826 75.1649 114.169 75.1649H113.551C111.894 75.1649 110.551 73.8218 110.551 72.1649V53.272C110.551 52.1674 111.446 51.272 112.551 51.272H120.984C122.898 51.272 124.519 51.6109 125.847 52.2887C127.175 52.9439 128.177 53.859 128.852 55.0338C129.527 56.1861 129.865 57.4853 129.865 58.9313C129.865 60.558 129.415 61.9927 128.514 63.2354C128.08 63.8391 127.544 64.357 126.905 64.7892C125.84 65.5108 125.245 66.9104 125.887 68.0256L127.409 70.6674C128.561 72.6674 127.118 75.1649 124.81 75.1649H124.4ZM117.169 59.812C117.169 60.9165 118.064 61.812 119.169 61.812H120.444C121.345 61.812 122.02 61.5973 122.47 61.1681C122.92 60.7388 123.145 60.1174 123.145 59.3041C123.145 58.5359 122.909 57.9371 122.436 57.5079C121.986 57.056 121.322 56.83 120.444 56.83H119.169C118.064 56.83 117.169 57.7255 117.169 58.83V59.812Z" fill="white"/>
<path d="M92.0513 53.9485C92.0513 52.4684 93.2512 51.2685 94.7313 51.2685H104.686C106.166 51.2685 107.366 52.4684 107.366 53.9485C107.366 55.4286 106.166 56.6285 104.686 56.6285H94.7313C93.2512 56.6285 92.0513 55.4286 92.0513 53.9485Z" fill="white"/>
<path d="M92.0513 63.1373C92.0513 61.6572 93.2512 60.4573 94.7313 60.4573H104.686C106.166 60.4573 107.366 61.6572 107.366 63.1373C107.366 64.6174 106.166 65.8173 104.686 65.8173H94.7313C93.2512 65.8173 92.0513 64.6174 92.0513 63.1373Z" fill="white"/>
<path d="M92.0513 72.3258C92.0513 70.8457 93.2512 69.6458 94.7313 69.6458H104.686C106.166 69.6458 107.366 70.8457 107.366 72.3258C107.366 73.806 106.166 75.0058 104.686 75.0058H94.7313C93.2512 75.0058 92.0513 73.806 92.0513 72.3258Z" fill="white"/>
</svg>
