<?xml version="1.0" encoding="utf-8"?>
<!-- Generator: Adobe Illustrator 25.4.1, SVG Export Plug-In . SVG Version: 6.00 Build 0)  -->
<svg version="1.1" id="Layer_1" xmlns="http://www.w3.org/2000/svg" xmlns:xlink="http://www.w3.org/1999/xlink" x="0px" y="0px"
	 viewBox="0 0 32 32" style="enable-background:new 0 0 32 32;" xml:space="preserve">
<style type="text/css">
	.st0{fill:#E8374D;}
</style>
<g>
	<path class="st0" d="M28.1,7h-3.9c-0.4,0-0.8-0.2-1-0.6L22,4.2c-0.4-0.7-1.1-1.1-2-1.1h-8c-0.8,0-1.5,0.4-2,1.1L8.9,6.4
		C8.7,6.8,8.3,7,7.8,7H3.9C1.8,7,0,8.8,0,10.9v14.9c0,2.2,1.8,3.9,3.9,3.9h24.2c2.2,0,3.9-1.8,3.9-3.9V10.9C32,8.8,30.2,7,28.1,7z
		 M31,25.7c0,1.5-1.2,2.9-2.9,2.9H3.9c-1.5,0-2.9-1.2-2.9-2.9V10.9C1,9.4,2.3,8,3.9,8h3.9c0.8,0,1.5-0.4,2-1.1L11,4.7
		c0.2-0.4,0.6-0.6,1-0.6h8c0.4,0,0.8,0.2,1,0.6l1.1,2.2c0.4,0.7,1.1,1.1,2,1.1H28c1.5,0,2.9,1.2,2.9,2.9C31,10.9,31,25.7,31,25.7z"
		/>
	<path class="st0" d="M16,10.8c-4,0-7.3,3.3-7.3,7.3s3.3,7.3,7.3,7.3s7.3-3.3,7.3-7.3S20,10.8,16,10.8z M16,24.3
		c-3.4,0-6.3-2.8-6.3-6.3s2.9-6.2,6.3-6.2s6.3,2.8,6.3,6.3S19.4,24.3,16,24.3z"/>
	<path class="st0" d="M18.7,17.5h-2.2v-2.2c0-0.3-0.2-0.5-0.5-0.5s-0.5,0.2-0.5,0.5v2.2h-2.2c-0.3,0-0.5,0.2-0.5,0.5
		s0.2,0.5,0.5,0.5h2.2v2.2c0,0.3,0.2,0.5,0.5,0.5c0.3,0,0.5-0.2,0.5-0.5v-2.2h2.2c0.3,0,0.5-0.2,0.5-0.5S19,17.5,18.7,17.5z"/>
</g>
</svg>
