<?xml version="1.0" encoding="utf-8"?>
<!-- Generator: Adobe Illustrator 26.4.1, SVG Export Plug-In . SVG Version: 6.00 Build 0)  -->
<svg version="1.1" id="Layer_1" xmlns="http://www.w3.org/2000/svg" xmlns:xlink="http://www.w3.org/1999/xlink" x="0px" y="0px"
	 viewBox="0 0 32 32" style="enable-background:new 0 0 32 32;" xml:space="preserve">
<style type="text/css">
	.st0{fill:#E8374D;}
</style>
<path class="st0" d="M31.2,15.3l-3.9-2.4l3.7-1c0.3-0.1,0.4-0.3,0.4-0.6c-0.1-0.3-0.3-0.4-0.6-0.4l-3.6,1l2.2-3.6
	c0.1-0.2,0.1-0.5-0.2-0.7c-0.2-0.1-0.5-0.1-0.7,0.2l-2.7,4.5l-8.7,2.3l2.3-8.4l4.5-2.7C24.1,3.3,24.1,3,24,2.7
	c-0.1-0.2-0.4-0.3-0.7-0.2l-3.6,2.2l1.1-4c0.1-0.3-0.1-0.5-0.4-0.6s-0.5,0.1-0.6,0.4l-1.1,4.1l-2.4-3.9c-0.1-0.2-0.5-0.3-0.7-0.2
	S15.3,1,15.4,1.2l2.9,4.7l-2.4,9L15.6,15L9,8.3V3c0-0.3-0.2-0.5-0.5-0.5S8,2.7,8,3v4.3L5.4,4.7c-0.2-0.2-0.5-0.2-0.7,0
	s-0.2,0.5,0,0.7L7.3,8H3C2.7,8,2.5,8.2,2.5,8.5S2.7,9,3,9h5.3l6.2,6.2l-8.3,2.2l-4.7-2.5c-0.2-0.1-0.5,0-0.7,0.2s0,0.5,0.2,0.7
	l3.8,2l-4.1,1.1c-0.3,0.1-0.4,0.3-0.4,0.6c0.1,0.2,0.3,0.4,0.5,0.4h0.1l4.2-1.1l-2.1,4c-0.1,0.2,0,0.5,0.2,0.7
	c0.1,0,0.2,0.1,0.2,0.1c0.2,0,0.3-0.1,0.4-0.3l2.7-4.9l8.8-2.4l0.2,0.2l-2.4,9.1L8.2,28C8,28.1,7.9,28.4,8,28.7
	C8.2,29,8.5,29,8.7,28.9l4.1-2.2l-1,3.8c-0.1,0.3,0.1,0.5,0.4,0.6h0.1c0.2,0,0.4-0.1,0.5-0.4l1-3.7l2,3.8c0.1,0.2,0.3,0.3,0.4,0.3
	s0.2,0,0.2-0.1c0.2-0.1,0.3-0.4,0.2-0.7l-2.5-4.7l2.3-8.5l5.9,5.9l0.7,6.1c0,0.3,0.2,0.4,0.5,0.4c0,0,0,0,0.1,0
	c0.3,0,0.5-0.3,0.4-0.6l-0.6-4.8l3.2,3.2c0.1,0.1,0.2,0.1,0.4,0.1s0.3,0,0.4-0.1c0.2-0.2,0.2-0.5,0-0.7L24,23.2l5-0.2
	c0.3,0,0.5-0.2,0.5-0.5S29.3,22,29,22l-6,0.2L16.7,16l0.1-0.3l9.2-2.5l4.7,2.9c0.1,0.1,0.2,0.1,0.3,0.1c0.2,0,0.3-0.1,0.4-0.2
	C31.5,15.7,31.4,15.4,31.2,15.3z"/>
</svg>
