<svg width="64" height="64" viewBox="0 0 64 64" fill="none" xmlns="http://www.w3.org/2000/svg">
<path d="M32 0C14.4 0 0 14.4 0 32C0 49.6 14.4 64 32 64C49.6 64 64 49.6 64 32C64 14.4 49.6 0 32 0ZM32 62C15.4 62 2 48.6 2 32C2 15.4 15.4 2 32 2C48.6 2 62 15.4 62 32C62 48.6 48.6 62 32 62Z" fill="#27AE60"/>
<path d="M45.2001 20.4L28.2001 38.8C27.8001 39.2 27.2001 39.2 26.8001 38.8L18.8001 30.2C18.4001 29.8 17.8001 29.8 17.4001 30.2C17.0001 30.6 17.0001 31.2 17.4001 31.6L25.4001 40.2C26.0001 40.8 26.8001 41.2 27.6001 41.2C28.4001 41.2 29.2001 40.8 29.8001 40.2L46.8001 21.8C47.2001 21.4 47.2001 20.8 46.8001 20.4C46.2001 20 45.6001 20 45.2001 20.4Z" fill="#27AE60"/>
</svg>
