<?xml version="1.0" encoding="utf-8"?>
<!-- Generator: Adobe Illustrator 26.4.1, SVG Export Plug-In . SVG Version: 6.00 Build 0)  -->
<svg version="1.1" id="Layer_1" xmlns="http://www.w3.org/2000/svg" xmlns:xlink="http://www.w3.org/1999/xlink" x="0px" y="0px"
	 viewBox="0 0 32 32" style="enable-background:new 0 0 32 32;" xml:space="preserve">
<style type="text/css">
	.st0{fill:#E8374D;}
</style>
<g>
	<path class="st0" d="M1.8,23c-1,0.9-1.7,2.2-1.7,3.6C0,28,0.6,29.3,1.5,30.3c0.9,0.9,2.2,1.5,3.5,1.5c1.4,0,2.8-0.6,3.7-1.7
		l6.6-7.5l7.7,7.7c0.9,0.9,2.1,1.4,3.4,1.4s2.5-0.5,3.4-1.4s1.4-2.1,1.4-3.4s-0.5-2.5-1.4-3.4l-8.2-8.2l2-2.3
		c0.6,0.2,1.2,0.3,1.8,0.3c1.9,0,3.7-0.8,4.8-2.2c1.6-2,1.8-4.7,0.5-7.1c-0.3-0.5-1.2-0.5-1.4,0l-1.5,2.8c-0.4,0.7-1.2,1-1.9,0.6
		l-1.5-0.8c-0.3-0.2-0.6-0.5-0.7-0.8c-0.1-0.4-0.1-0.8,0.1-1.1l1.7-3.2c0.1-0.3,0.1-0.6,0-0.8s-0.4-0.4-0.8-0.4
		c-1.9,0-3.7,0.8-4.8,2.2c-1.3,1.6-1.7,3.7-1.1,5.7L13.2,13L5.7,5.3C6.2,4.7,6.3,3.8,6.1,3C5.8,2.1,5,1.4,4,1.2L2,0.7
		c-0.4-0.1-0.9,0-1.2,0.4C0.5,1.4,0.4,1.8,0.4,2.3l0.4,2.1c0.3,1.3,1.4,2.2,2.7,2.2c0.5,0,1-0.2,1.5-0.5l7.7,7.7L1.8,23z M3.6,5.5
		C2.9,5.5,2,5.1,1.9,4.2l-0.4-2c0-0.1,0-0.1,0.1-0.2c0,0,0.1,0.1,0.2,0.1l0,0l2.1,0.3c0.6,0.1,1.1,0.4,1.3,1S5.3,4.6,4.9,5L4.6,5.1
		C4.3,5.4,4,5.5,3.6,5.5z M29.3,24.1c0.7,0.7,1.1,1.7,1.1,2.7s-0.4,2-1.1,2.7c-1.5,1.5-4,1.5-5.4,0l-7.8-7.8l5.1-5.8L29.3,24.1z
		 M20.1,8.2c-0.6-1.8-0.3-3.7,0.8-5.1c0.9-1.1,2.3-1.8,3.8-1.9l-1.5,2.9C22.9,4.7,22.8,5.3,23,6s0.6,1.1,1.2,1.4l1.5,0.8
		c0.3,0.2,0.7,0.3,1.1,0.3c0.9,0,1.7-0.5,2.2-1.3l1.3-2.5c0.9,1.9,0.7,4.1-0.6,5.7c-1.3,1.7-3.8,2.3-5.9,1.6c-0.2-0.1-0.4,0-0.5,0.1
		L8,29.4c-0.7,0.9-1.8,1.3-3,1.3c-1.1,0-2-0.4-2.8-1.2c-0.8-0.8-1.2-1.8-1.1-2.9c0-1.1,0.5-2.1,1.4-2.8L20,8.8
		C20.1,8.7,20.2,8.4,20.1,8.2z"/>
	<path class="st0" d="M19.9,21l6,6c0.1,0.1,0.2,0.1,0.4,0.1s0.3,0,0.4-0.1c0.2-0.2,0.2-0.5,0-0.7l-6-6c-0.2-0.2-0.5-0.2-0.7,0
		S19.7,20.8,19.9,21z"/>
	<path class="st0" d="M5.1,24.8c-1.1,0-2,0.9-2,2s0.9,2,2,2s2-0.9,2-2S6.2,24.8,5.1,24.8z M5.1,27.8c-0.6,0-1-0.4-1-1s0.4-1,1-1
		s1,0.4,1,1S5.6,27.8,5.1,27.8z"/>
</g>
</svg>
