<?xml version="1.0" encoding="utf-8"?>
<!-- Generator: Adobe Illustrator 25.4.1, SVG Export Plug-In . SVG Version: 6.00 Build 0)  -->
<svg version="1.1" id="Layer_1" xmlns="http://www.w3.org/2000/svg" xmlns:xlink="http://www.w3.org/1999/xlink" x="0px" y="0px"
	 viewBox="0 0 32 32" style="enable-background:new 0 0 32 32;" xml:space="preserve">
<style type="text/css">
	.st0{fill:#E8374D;}
</style>
<g>
	<path class="st0" d="M29.5,0h-25C3.1,0,2,1.1,2,2.5V5C1.4,5.2,0.9,5.8,0.9,6.5v4c0,0.7,0.4,1.3,1.1,1.5v4.8
		c-0.6,0.2-1.1,0.8-1.1,1.5v4c0,0.7,0.4,1.3,1.1,1.5v3.7C2,28.9,3.1,30,4.5,30h2.7l0.9,1.7c0.1,0.2,0.3,0.3,0.4,0.3h4
		c0.2,0,0.4-0.1,0.4-0.3l0.9-1.7h6.4l0.9,1.7c0.1,0.2,0.3,0.3,0.4,0.3h4c0.2,0,0.4-0.1,0.4-0.3l0.9-1.7h2.7c1.4,0,2.5-1.1,2.5-2.5
		v-25C32,1.1,30.9,0,29.5,0z M2.1,6.5c0-0.2,0.2-0.4,0.4-0.4s0.4,0.2,0.4,0.4v4c0,0.2-0.2,0.4-0.4,0.4s-0.4-0.2-0.4-0.4V6.5z
		 M2.1,18.3c0-0.2,0.2-0.4,0.4-0.4s0.4,0.2,0.4,0.4v4c0,0.2-0.2,0.4-0.4,0.4s-0.4-0.2-0.4-0.4V18.3z M12.2,30.9H8.8L8.3,30h4.4
		L12.2,30.9z M25.2,30.9h-3.4L21.3,30h4.4L25.2,30.9z M31,27.5c0,0.8-0.7,1.5-1.5,1.5h-3h-6h-7h-6h-3C3.7,29,3,28.3,3,27.5v-3.7
		c0.6-0.2,1.1-0.8,1.1-1.5v-4c0-0.7-0.5-1.3-1.1-1.5V12c0.6-0.2,1.1-0.8,1.1-1.5v-4C4.1,5.8,3.6,5.2,3,5V2.5C3,1.7,3.7,1,4.5,1h25
		C30.3,1,31,1.7,31,2.5V27.5z"/>
	<path class="st0" d="M22.7,9.4C22.7,9.4,22.7,9.3,22.7,9.4C22.6,9.3,22.6,9.3,22.7,9.4C21.2,7.9,19.2,7,17,7s-4.2,0.9-5.6,2.3
		c0,0,0,0,0,0c0,0,0,0,0,0C9.9,10.8,9,12.8,9,15s0.9,4.2,2.3,5.6c0,0,0,0,0,0c0,0,0,0,0,0c1.4,1.4,3.4,2.3,5.6,2.3s4.2-0.9,5.6-2.3
		c0,0,0,0,0,0c0,0,0,0,0,0c1.4-1.4,2.3-3.4,2.3-5.6S24.1,10.8,22.7,9.4z M22.5,15.5H24c-0.1,1.5-0.7,3-1.7,4.1l-1-1
		c-0.2-0.2-0.5-0.2-0.7,0s-0.2,0.5,0,0.7l1,1c-1.1,1-2.5,1.6-4.1,1.7v-1.5c0-0.3-0.2-0.5-0.5-0.5s-0.5,0.2-0.5,0.5V22
		c-1.6-0.1-3-0.7-4.1-1.7l1-1c0.2-0.2,0.2-0.5,0-0.7s-0.5-0.2-0.7,0l-1,1c-1-1.1-1.6-2.5-1.7-4.1h1.5c0.3,0,0.5-0.2,0.5-0.5
		s-0.2-0.5-0.5-0.5H10c0.1-1.6,0.7-3,1.7-4.1l1,1c0.1,0.1,0.2,0.1,0.4,0.1s0.3-0.1,0.4-0.1c0.2-0.2,0.2-0.5,0-0.7l-1-1
		c1.1-1,2.5-1.6,4.1-1.7v1.5c0,0.3,0.2,0.5,0.5,0.5s0.5-0.2,0.5-0.5V8c1.5,0.1,3,0.7,4.1,1.7l-1,1c-0.2,0.2-0.2,0.5,0,0.7
		c0.1,0.1,0.2,0.1,0.4,0.1s0.3-0.1,0.4-0.1l1-1c1,1.1,1.6,2.5,1.7,4.1h-1.5c-0.3,0-0.5,0.2-0.5,0.5S22.2,15.5,22.5,15.5z"/>
	<path class="st0" d="M17,12c-1.6,0-3,1.4-3,3s1.4,3,3,3s3-1.4,3-3S18.6,12,17,12z M17,17c-1.1,0-2-0.9-2-2s0.9-2,2-2s2,0.9,2,2
		S18.1,17,17,17z"/>
</g>
</svg>
