<?xml version="1.0" encoding="utf-8"?>
<!-- Generator: Adobe Illustrator 25.4.1, SVG Export Plug-In . SVG Version: 6.00 Build 0)  -->
<svg version="1.1" id="Layer_1" xmlns="http://www.w3.org/2000/svg" xmlns:xlink="http://www.w3.org/1999/xlink" x="0px" y="0px"
	 viewBox="0 0 32 32" style="enable-background:new 0 0 32 32;" xml:space="preserve">
<g>
	<path d="M29.5,0h-25C3.12,0,2,1.12,2,2.5v2.52C1.38,5.23,0.93,5.81,0.93,6.5v4c0,0.69,0.45,1.27,1.07,1.48v4.83
		c-0.62,0.21-1.07,0.79-1.07,1.48v4c0,0.69,0.45,1.27,1.07,1.48v3.72C2,28.88,3.12,30,4.5,30h2.7l0.86,1.66
		c0.09,0.17,0.26,0.27,0.44,0.27h4c0.19,0,0.36-0.1,0.44-0.27L13.8,30h6.39l0.86,1.66c0.09,0.17,0.26,0.27,0.44,0.27h4
		c0.19,0,0.36-0.1,0.44-0.27L26.8,30h2.7c1.38,0,2.5-1.12,2.5-2.5v-25C32,1.12,30.88,0,29.5,0z M2.07,6.5
		c0-0.24,0.19-0.43,0.43-0.43S2.93,6.26,2.93,6.5v4c0,0.24-0.19,0.43-0.43,0.43s-0.43-0.19-0.43-0.43V6.5z M2.07,18.3
		c0-0.24,0.19-0.43,0.43-0.43s0.43,0.19,0.43,0.43v4c0,0.24-0.19,0.43-0.43,0.43s-0.43-0.19-0.43-0.43V18.3z M12.2,30.93H8.8
		L8.32,30h4.36L12.2,30.93z M25.2,30.93h-3.4L21.32,30h4.36L25.2,30.93z M31,27.5c0,0.83-0.67,1.5-1.5,1.5h-3h-6h-7h-6h-3
		C3.67,29,3,28.33,3,27.5v-3.72c0.62-0.21,1.07-0.79,1.07-1.48v-4c0-0.69-0.45-1.27-1.07-1.48v-4.83c0.62-0.21,1.07-0.79,1.07-1.48
		v-4c0-0.69-0.45-1.27-1.07-1.48V2.5C3,1.67,3.67,1,4.5,1h25C30.33,1,31,1.67,31,2.5V27.5z"/>
	<path d="M22.67,9.37c-0.01-0.01-0.01-0.02-0.01-0.02c-0.01-0.01-0.02-0.01-0.02-0.01C21.19,7.89,19.2,7,17,7s-4.19,0.89-5.64,2.33
		c-0.01,0.01-0.02,0.01-0.02,0.01c-0.01,0.01-0.01,0.02-0.01,0.02C9.89,10.81,9,12.8,9,15s0.89,4.19,2.33,5.63
		c0.01,0.01,0.01,0.02,0.01,0.02c0.01,0.01,0.02,0.01,0.02,0.01C12.81,22.11,14.8,23,17,23s4.19-0.89,5.64-2.33
		c0.01-0.01,0.02-0.01,0.02-0.01c0.01-0.01,0.01-0.02,0.01-0.02C24.11,19.19,25,17.2,25,15S24.11,10.81,22.67,9.37z M22.5,15.5h1.47
		c-0.11,1.55-0.73,2.97-1.69,4.08l-1.04-1.04c-0.2-0.2-0.51-0.2-0.71,0s-0.2,0.51,0,0.71l1.04,1.04c-1.11,0.96-2.52,1.58-4.08,1.69
		V20.5c0-0.28-0.22-0.5-0.5-0.5s-0.5,0.22-0.5,0.5v1.47c-1.55-0.11-2.97-0.73-4.08-1.69l1.04-1.04c0.2-0.19,0.2-0.51,0-0.71
		s-0.51-0.2-0.71,0l-1.04,1.04c-0.96-1.11-1.58-2.52-1.69-4.08h1.47c0.28,0,0.5-0.22,0.5-0.5s-0.22-0.5-0.5-0.5h-1.47
		c0.11-1.55,0.73-2.97,1.69-4.08l1.04,1.04c0.1,0.1,0.23,0.15,0.35,0.15s0.26-0.05,0.35-0.15c0.2-0.2,0.2-0.51,0-0.71L12.4,9.7
		c1.11-0.96,2.52-1.58,4.08-1.69V9.5c0,0.28,0.22,0.5,0.5,0.5s0.5-0.22,0.5-0.5V8.03c1.55,0.11,2.97,0.73,4.08,1.69l-1.04,1.04
		c-0.2,0.19-0.2,0.51,0,0.71c0.1,0.1,0.23,0.15,0.35,0.15s0.26-0.05,0.35-0.15l1.04-1.04c0.96,1.11,1.58,2.52,1.69,4.08H22.5
		c-0.28,0-0.5,0.22-0.5,0.5S22.22,15.5,22.5,15.5z"/>
	<path d="M17,12c-1.65,0-3,1.35-3,3s1.35,3,3,3s3-1.35,3-3S18.65,12,17,12z M17,17c-1.1,0-2-0.9-2-2s0.9-2,2-2s2,0.9,2,2
		S18.1,17,17,17z"/>
</g>
</svg>
