<?xml version="1.0" encoding="utf-8"?>
<!-- Generator: Adobe Illustrator 25.4.1, SVG Export Plug-In . SVG Version: 6.00 Build 0)  -->
<svg version="1.1" id="Layer_1" xmlns="http://www.w3.org/2000/svg" xmlns:xlink="http://www.w3.org/1999/xlink" x="0px" y="0px"
	 viewBox="0 0 32 32" style="enable-background:new 0 0 32 32;" xml:space="preserve">
<style type="text/css">
	.st0{fill:#E8374D;}
</style>
<g>
	<path class="st0" d="M27,14.8c-2.3,0-4.2,1.8-4.4,4h-2.1c-0.2-2.1-1.9-3.7-4-4l0,0V7.5l4.8-2c0.6-0.3,1-0.8,0.9-1.5
		c0-0.7-0.5-1.2-1.1-1.3l-3.6-0.9c-0.5-0.2-1-0.1-1.4,0.2s-0.6,0.7-0.6,1.2v11.6l0,0c-2.1,0.2-3.7,1.9-4,4H9.4c-0.3-2.2-2.1-4-4.4-4
		c-2.5,0-4.5,2-4.5,4.5s2,4.5,4.5,4.5c2.3,0,4.2-1.8,4.4-4h2.1c0.3,2.2,2.1,4,4.4,4s4.2-1.8,4.4-4h2.1c0.3,2.2,2.1,4,4.4,4
		c2.5,0,4.5-2,4.5-4.5S29.5,14.8,27,14.8z M16.5,3.1c0-0.2,0.1-0.3,0.2-0.4c0.1-0.1,0.2-0.1,0.3-0.1c0.1,0,0.1,0,0.2,0l3.7,0.9
		c0.3,0.1,0.4,0.4,0.4,0.4c0,0.1,0,0.4-0.3,0.5l-4.5,1.9C16.5,6.3,16.5,3.1,16.5,3.1z M5,22.8c-1.9,0-3.5-1.6-3.5-3.5
		s1.6-3.5,3.5-3.5s3.5,1.6,3.5,3.5S6.9,22.8,5,22.8z M16,22.8c-1.9,0-3.5-1.6-3.5-3.5s1.6-3.5,3.5-3.5s3.5,1.6,3.5,3.5
		S17.9,22.8,16,22.8z M27,22.8c-1.9,0-3.5-1.6-3.5-3.5s1.6-3.5,3.5-3.5s3.5,1.6,3.5,3.5S28.9,22.8,27,22.8z"/>
	<circle class="st0" cx="16" cy="19.3" r="1.5"/>
	<polygon class="st0" points="3.8,27.1 4.4,27.1 4.4,29.9 5.2,29.9 5.2,26.4 3.8,26.4 	"/>
	<path class="st0" d="M16.8,28.6c0.2-0.3,0.4-0.5,0.5-0.6s0.1-0.3,0.1-0.5c0-0.3-0.1-0.6-0.3-0.8c-0.2-0.2-0.5-0.3-0.8-0.3
		s-0.5,0.1-0.7,0.2s-0.4,0.3-0.5,0.6l0.6,0.4c0.2-0.3,0.4-0.5,0.6-0.5c0.1,0,0.2,0,0.3,0.1c0.1,0.1,0.1,0.2,0.1,0.3
		c0,0.1,0,0.2-0.1,0.4c-0.1,0.1-0.2,0.3-0.4,0.5l-1,1V30h2.5v-0.7h-1.4L16.8,28.6z"/>
	<path class="st0" d="M27.7,27.8l0.7-0.8v-0.5h-2.1v0.7h1.1L26.7,28v0.6c0.2-0.1,0.4-0.1,0.5-0.1c0.2,0,0.4,0,0.5,0.1
		s0.2,0.2,0.2,0.3c0,0.1-0.1,0.3-0.2,0.3c-0.1,0.1-0.2,0.1-0.4,0.1c-0.3,0-0.6-0.1-0.9-0.4l-0.3,0.6c0.4,0.3,0.8,0.4,1.2,0.4
		c0.4,0,0.7-0.1,1-0.3s0.4-0.5,0.4-0.9c0-0.2-0.1-0.5-0.2-0.7C28.2,28,28,27.8,27.7,27.8z"/>
</g>
</svg>
